<svg xmlns="http://www.w3.org/2000/svg" xmlns:xlink="http://www.w3.org/1999/xlink" width="298" height="340" viewBox="0 0 298 340">
  <defs>
    <path id="b" d="M0 0h292v332H0z"/>
    <filter id="a" width="104.8%" height="104.5%" x="-2.4%" y="-1.8%" filterUnits="objectBoundingBox">
      <feOffset dy="1" in="SourceAlpha" result="shadowOffsetOuter1"/>
      <feGaussianBlur in="shadowOffsetOuter1" result="shadowBlurOuter1" stdDeviation="1.5"/>
      <feComposite in="shadowBlurOuter1" in2="SourceAlpha" operator="out" result="shadowBlurOuter1"/>
      <feColorMatrix in="shadowBlurOuter1" result="shadowMatrixOuter1" values="0 0 0 0 0.258823529 0 0 0 0 0.258823529 0 0 0 0 0.258823529 0 0 0 0.2 0"/>
      <feMorphology in="SourceAlpha" operator="dilate" radius=".5" result="shadowSpreadOuter2"/>
      <feOffset dy="3" in="shadowSpreadOuter2" result="shadowOffsetOuter2"/>
      <feGaussianBlur in="shadowOffsetOuter2" result="shadowBlurOuter2" stdDeviation="1"/>
      <feComposite in="shadowBlurOuter2" in2="SourceAlpha" operator="out" result="shadowBlurOuter2"/>
      <feColorMatrix in="shadowBlurOuter2" result="shadowMatrixOuter2" values="0 0 0 0 0.980392157 0 0 0 0 0.980392157 0 0 0 0 0.980392157 0 0 0 0.3 0"/>
      <feMerge>
        <feMergeNode in="shadowMatrixOuter1"/>
        <feMergeNode in="shadowMatrixOuter2"/>
      </feMerge>
    </filter>
    <path id="c" d="M19.615 3.184c-3.604-.246-11.631-.245-15.23 0C.488 3.45.029 5.804 0 12c.029 6.185.484 8.549 4.385 8.816 3.6.245 11.626.246 15.23 0C23.512 20.55 23.971 18.196 24 12c-.029-6.185-.484-8.549-4.385-8.816zM9 16V8l8 3.993L9 16z"/>
  </defs>
  <g fill="none" fill-rule="evenodd">
    <g transform="translate(3 2)">
      <use fill="#000" filter="url(#a)" xlink:href="#b"/>
      <path fill="#FAFAFA" stroke="#E0E0E0" stroke-linejoin="square" d="M.5.5v331h291V.5H.5z"/>
    </g>
    <path fill="#F5F5F5" stroke="#E0E0E0" d="M3.5 2.5h291v331H3.5z"/>
    <g transform="translate(137 156.719)">
      <mask id="d" fill="#fff">
        <use xlink:href="#c"/>
      </mask>
      <use fill="#9E9E9E" fill-rule="nonzero" xlink:href="#c"/>
      <g fill="#9E9E9E" mask="url(#d)">
        <path d="M0 0h32v32H0z"/>
      </g>
    </g>
    <g>
      <text fill="#9E9E9E" font-family="HelveticaNeue, Helvetica Neue" font-size="15" transform="translate(19 246)">
        <tspan x="0" y="64">Video subtitle is optional</tspan>
      </text>
      <text fill="#424242" font-family="HelveticaNeue-Bold, Helvetica Neue" font-size="18" font-weight="bold" transform="translate(19 246)">
        <tspan x="0" y="18">Video Card w/ overlay title </tspan> <tspan x="0" y="40">and full poster image.</tspan>
      </text>
    </g>
  </g>
</svg>
