<svg xmlns="http://www.w3.org/2000/svg" xmlns:xlink="http://www.w3.org/1999/xlink" width="596" height="336" viewBox="0 0 596 336">
  <defs>
    <filter id="a" width="102.7%" height="104.8%" x="-1.4%" y="-2.4%" filterUnits="objectBoundingBox">
      <feOffset dy="2" in="SourceAlpha" result="shadowOffsetOuter1"/>
      <feGaussianBlur in="shadowOffsetOuter1" result="shadowBlurOuter1" stdDeviation="1"/>
      <feColorMatrix in="shadowBlurOuter1" result="shadowMatrixOuter1" values="0 0 0 0 0.619607843 0 0 0 0 0.619607843 0 0 0 0 0.619607843 0 0 0 0.3 0"/>
      <feMerge>
        <feMergeNode in="shadowMatrixOuter1"/>
        <feMergeNode in="SourceGraphic"/>
      </feMerge>
    </filter>
    <path id="b" d="M19.615 3.184c-3.604-.246-11.631-.245-15.23 0C.488 3.45.029 5.804 0 12c.029 6.185.484 8.549 4.385 8.816 3.6.245 11.626.246 15.23 0C23.512 20.55 23.971 18.196 24 12c-.029-6.185-.484-8.549-4.385-8.816zM9 16V8l8 3.993L9 16z"/>
    <path id="d" d="M0 0h560v44H0z"/>
  </defs>
  <g fill="none" fill-rule="evenodd" filter="url(#a)" transform="translate(2)">
    <path fill="#FAFAFA" d="M0 0h592v332H0z"/>
    <path fill="#F5F5F5" stroke="#E0E0E0" d="M.5.5v331h591V.5H.5z"/>
    <g transform="translate(284 154.719)">
      <mask id="c" fill="#fff">
        <use xlink:href="#b"/>
      </mask>
      <use fill="#9E9E9E" fill-rule="nonzero" xlink:href="#b"/>
      <g fill="#9E9E9E" mask="url(#c)">
        <path d="M0 0h32v32H0z"/>
      </g>
    </g>
    <g>
      <g fill="#9E9E9E" font-family="HelveticaNeue, Helvetica Neue" font-size="15">
        <text transform="translate(16 272)">
          <tspan x="21" y="14">Jane Doe</tspan>
        </text>
        <text transform="translate(16 272)">
          <tspan x=".302" y="14">by</tspan>
        </text>
      </g>
      <g transform="translate(16 224)">
        <mask id="e" fill="#fff">
          <use xlink:href="#d"/>
        </mask>
        <use fill="#FFF" fill-opacity="0" xlink:href="#d"/>
        <text fill="#424242" font-family="HelveticaNeue-Bold, Helvetica Neue" font-size="18" font-weight="bold" mask="url(#e)">
          <tspan x="0" y="18">Duis accumsan blandit ipsum nec fringilla. Vivamus suscipit </tspan> <tspan x="0" y="40">hendrerit dolor id ultrices. Nunc sapien nulla, volutpat at </tspan> <tspan x="0" y="62">accumsan non, aliquam nec diam.</tspan>
        </text>
      </g>
    </g>
  </g>
</svg>
