<svg xmlns="http://www.w3.org/2000/svg" xmlns:xlink="http://www.w3.org/1999/xlink" width="296" height="335" viewBox="0 0 296 335">
  <defs>
    <filter id="a" width="105.5%" height="109.5%" x="-2.7%" y="-4.8%" filterUnits="objectBoundingBox">
      <feOffset dy="2" in="SourceAlpha" result="shadowOffsetOuter1"/>
      <feGaussianBlur in="shadowOffsetOuter1" result="shadowBlurOuter1" stdDeviation="1"/>
      <feColorMatrix in="shadowBlurOuter1" result="shadowMatrixOuter1" values="0 0 0 0 0.619607843 0 0 0 0 0.619607843 0 0 0 0 0.619607843 0 0 0 0.3 0"/>
      <feMerge>
        <feMergeNode in="shadowMatrixOuter1"/>
        <feMergeNode in="SourceGraphic"/>
      </feMerge>
    </filter>
    <path id="b" d="M16.063 20.375c3.187-2.875 5.28-4.781 5.28-6.719 0-1.344-1-2.312-2.343-2.312-1.031 0-2.031.656-2.375 1.562h-1.25C15.031 12 14.031 11.344 13 11.344c-1.344 0-2.344.969-2.344 2.312 0 1.938 2.094 3.844 5.281 6.719l.063.063.063-.063zM19 10c2.063 0 3.656 1.594 3.656 3.656 0 2.531-2.25 4.563-5.687 7.688l-.969.875-.969-.844c-3.437-3.125-5.687-5.188-5.687-7.719C9.344 11.594 10.938 10 13 10c1.156 0 2.281.563 3 1.406.719-.844 1.844-1.406 3-1.406z"/>
    <path id="c" d="M16 14h260v69H16z"/>
    <path id="e" d="M142.484 82.87l-3.468 4.5h13.968l-4.5-6-3.468 4.5-2.532-3zm14.532 5.485c0 1.078-.938 2.016-2.016 2.016h-18c-1.078 0-2.016-.938-2.016-2.016v-12c0-1.078.938-2.016 2.016-2.016h18c1.078 0 2.016.938 2.016 2.016v12z"/>
  </defs>
  <g fill="none" fill-rule="evenodd" transform="translate(2)">
    <g filter="url(#a)" transform="translate(0 163)">
      <path fill="#FAFAFA" stroke="#E0E0E0" d="M.5.5v167h291V.5H.5z"/>
      <g transform="translate(0 136)">
        <path fill="#FFF" stroke="#EEE" d="M.5.5v31h291V.5H.5z"/>
        <path fill="#EEE" d="M0 0h292v1H0z"/>
        <text fill="#757575" font-family="HelveticaNeue, Helvetica Neue" font-size="13">
          <tspan x="262" y="20">332</tspan>
        </text>
        <path fill="#757575" d="M251 19.557v-2.224s-3.78-.114-7 3.334c1.513-6.588 7-7.78 7-7.78v-2.22l5 4.425-5 4.465z"/>
        <text fill="#757575" font-family="HelveticaNeue, Helvetica Neue" font-size="13">
          <tspan x="145" y="20">120</tspan>
        </text>
        <path fill="#757575" d="M138.344 19.323v-8h-10.688v9.344L129 19.323h9.344zm0-9.313a1.32 1.32 0 0 1 1.312 1.313v8c0 .719-.594 1.344-1.312 1.344H129l-2.656 2.656v-12a1.32 1.32 0 0 1 1.312-1.313h10.688z"/>
        <text fill="#757575" font-family="HelveticaNeue, Helvetica Neue" font-size="13">
          <tspan x="28" y="20">332</tspan>
        </text>
        <use fill="#757575" xlink:href="#b"/>
      </g>
      <text fill="#9E9E9E" font-family="HelveticaNeue, Helvetica Neue" font-size="15">
        <tspan x="37" y="100">Jane Doe</tspan>
      </text>
      <text fill="#9E9E9E" font-family="HelveticaNeue, Helvetica Neue" font-size="15">
        <tspan x="16.302" y="100">by</tspan>
      </text>
      <mask id="d" fill="#fff">
        <use xlink:href="#c"/>
      </mask>
      <use fill="#FFF" fill-opacity="0" xlink:href="#c"/>
      <text fill="#424242" font-family="HelveticaNeue-Bold, Helvetica Neue" font-size="18" font-weight="bold" mask="url(#d)">
        <tspan x="16" y="34">Vestibulum quam orci, </tspan> <tspan x="16" y="56">porttitor in nisl aliquam, </tspan> <tspan x="16" y="78">placerat gravida ligula. </tspan> <tspan x="16" y="100">Quisque sed malesuada velit.</tspan>
      </text>
    </g>
    <path fill="#F5F5F5" stroke="#E0E0E0" d="M.5.5v163h291V.5H.5z"/>
    <use fill="#9E9E9E" fill-rule="nonzero" xlink:href="#e"/>
  </g>
</svg>
