<?xml version="1.0" encoding="UTF-8"?>
<svg width="180px" height="53px" viewBox="0 0 180 53" version="1.1" xmlns="http://www.w3.org/2000/svg" xmlns:xlink="http://www.w3.org/1999/xlink">
    <title>The Ewing Marion Kauffman Foundation</title>
    <desc>The Kauffman Foundation logo</desc>
    <g id="kauffman-logo">
        <polygon id="Fill-1" fill="#636463" points="73.6765934 30.0130357 70.0521997 30.0130357 67.0060656 25.5107247 65.549632 27.1330357 65.549632 30.0130357 62.5207019 30.0130357 62.5207019 18.4098402 65.549632 18.4098402 65.549632 23.4418802 69.9032696 18.4098402 73.4116006 18.4098402 69.108291 23.1935777"></polygon>
        <path d="M81.5225392,25.6432981 L84.7337803,25.6432981 L83.1453638,21.5053524 L81.5225392,25.6432981 Z M86.4220827,30.0131127 L85.6273609,27.9607019 L80.6120114,27.9607019 L79.8011127,30.0131127 L76.6895007,30.0131127 L81.6717261,18.4099173 L84.7833381,18.4099173 L89.6495007,30.0131127 L86.4220827,30.0131127 Z" id="Fill-2" fill="#636463"></path>
        <path d="M96.816582,26.9840285 C97.247709,27.4254265 97.7936148,27.6457404 98.4555835,27.6457404 C99.1065107,27.6457404 99.6336719,27.4279943 100.03604,26.9919886 C100.439178,26.5564964 100.640234,25.9687361 100.640234,25.2292211 L100.640234,18.4097632 L103.669421,18.4097632 L103.669421,25.2292211 C103.669421,26.233729 103.456553,27.1137004 103.032616,27.8693923 C102.606882,28.6255977 101.999863,29.2074522 101.211561,29.6157261 C100.422231,30.0237432 99.4980942,30.2281369 98.4394066,30.2281369 C97.3796919,30.2281369 96.4501626,30.0237432 95.6500485,29.6157261 C94.8499344,29.2074522 94.2321312,28.6255977 93.7966391,27.8693923 C93.3601198,27.1137004 93.1418602,26.233729 93.1418602,25.2292211 L93.1418602,18.4097632 L96.1707903,18.4097632 L96.1707903,25.2292211 C96.1707903,25.9576947 96.3864822,26.5426305 96.816582,26.9840285" id="Fill-3" fill="#636463"></path>
        <polygon id="Fill-5" fill="#636463" points="108.717946 18.4098146 117.39107 18.4098146 117.374893 20.8263338 111.746876 20.8263338 111.746876 23.4084736 116.944536 23.4084736 116.944536 25.8252496 111.746876 25.8252496 111.746876 30.01301 108.717946 30.01301"></polygon>
        <polygon id="Fill-7" fill="#636463" points="121.744528 18.4098146 130.417395 18.4098146 130.401475 20.8263338 124.773458 20.8263338 124.773458 23.4084736 129.970348 23.4084736 129.970348 25.8252496 124.773458 25.8252496 124.773458 30.01301 121.744528 30.01301"></polygon>
        <polygon id="Fill-9" fill="#636463" points="134.771084 18.4098146 138.065007 18.4098146 141.424408 25.1966619 144.768659 18.4098146 148.062582 18.4098146 148.062582 30.01301 145.38107 30.01301 145.364123 22.6638231 142.401441 28.8546933 140.448402 28.8546933 137.468773 22.6638231 137.468773 30.01301 134.771084 30.01301"></polygon>
        <path d="M156.916964,25.6432981 L160.128205,25.6432981 L158.539789,21.5053524 L156.916964,25.6432981 Z M161.816508,30.0131127 L161.021786,27.9607019 L156.006437,27.9607019 L155.195538,30.0131127 L152.083926,30.0131127 L157.066151,18.4099173 L160.177763,18.4099173 L165.043926,30.0131127 L161.816508,30.0131127 Z" id="Fill-11" fill="#636463"></path>
        <polygon id="Fill-13" fill="#636463" points="176.995643 18.4098146 179.809138 18.4098146 179.809138 30.01301 177.16075 30.01301 171.896842 23.0777461 171.896842 30.01301 169.06717 30.01301 169.06717 18.4098146 171.731478 18.4098146 177.01182 25.394893"></polygon>
        <polygon id="Fill-15" fill="#636463" points="62.420893 7.10247646 66.8898231 7.10247646 66.8898231 7.90259058 63.303689 7.90259058 63.303689 9.88849643 66.5131327 9.88849643 66.5131327 10.6886106 63.303689 10.6886106 63.303689 12.739224 67.0002368 12.739224 67.0002368 13.5393381 62.420893 13.5393381"></polygon>
        <polygon id="Fill-17" fill="#636463" points="80.2141113 7.10247646 81.1336262 7.10247646 78.9541113 13.5393381 78.0345963 13.5393381 76.3706876 8.22458773 74.6782767 13.5393381 73.7682625 13.5393381 71.5977347 7.10247646 72.5449815 7.10247646 74.2463795 12.5923481 75.9382767 7.10247646 76.8210728 7.10247646 78.522214 12.5923481"></polygon>
        <polygon id="Fill-19" fill="#636463" points="86.1360342 13.5392867 87.0188302 13.5392867 87.0188302 7.10242511 86.1360342 7.10242511"></polygon>
        <polygon id="Fill-21" fill="#636463" points="97.4838146 7.10247646 98.3576234 7.10247646 98.3576234 13.5393381 97.4653267 13.5393381 93.7872668 8.55557204 93.7872668 13.5393381 92.9044708 13.5393381 92.9044708 7.10247646 93.7965107 7.10247646 97.4838146 12.096"></polygon>
        <path d="M108.702231,10.394602 L109.483857,10.394602 L109.483857,12.7577118 C109.158779,13.015515 108.779007,13.220679 108.344029,13.3737175 C107.90828,13.5272696 107.475869,13.6035321 107.04731,13.6035321 C106.427966,13.6035321 105.861004,13.4581969 105.345912,13.1672696 C104.830819,12.8758288 104.425113,12.4775692 104.127766,11.9714636 C103.830163,11.4658716 103.681489,10.912776 103.681489,10.3119201 C103.681489,9.71132097 103.83196,9.16079315 104.132131,8.66110699 C104.432559,8.1616776 104.843144,7.76803994 105.364399,7.47968046 C105.885141,7.19132097 106.461603,7.04726961 107.093016,7.04726961 C107.540576,7.04726961 107.977609,7.12712696 108.403601,7.28658488 C108.829849,7.4460428 109.198836,7.66327532 109.511846,7.93930956 L109.00574,8.5827903 C108.748451,8.34398859 108.452645,8.15859629 108.118579,8.02661341 C107.784514,7.8948873 107.442745,7.82889586 107.093016,7.82889586 C106.63313,7.82889586 106.21022,7.93930956 105.824029,8.15988017 C105.437837,8.38070756 105.133044,8.68113552 104.909136,9.06116405 C104.685484,9.44144936 104.573529,9.85794009 104.573529,10.3119201 C104.573529,10.7653866 104.686767,11.1839315 104.914014,11.5670414 C105.140748,11.9498944 105.446825,12.2534037 105.833529,12.4775692 C106.21972,12.7012211 106.642631,12.8129187 107.102516,12.8129187 C107.371874,12.8129187 107.646111,12.7684964 107.925484,12.6796519 C108.204342,12.5908074 108.463429,12.4667846 108.702231,12.3073267 L108.702231,10.394602 Z" id="Fill-22" fill="#636463"></path>
        <polygon id="Fill-23" fill="#636463" points="121.965278 7.10247646 123.013695 7.10247646 125.367817 11.6266134 127.703452 7.10247646 128.761113 7.10247646 128.761113 13.5393381 127.933524 13.5393381 127.924023 8.39919544 125.634608 12.8586248 125.091783 12.8586248 122.78388 8.39919544 122.78388 13.5393381 121.965278 13.5393381"></polygon>
        <path d="M135.703515,11.1763053 L138.40711,11.1763053 L137.04594,8.04954351 L135.703515,11.1763053 Z M139.428051,13.5394151 L138.747338,11.9759058 L135.3543,11.9759058 L134.68283,13.5394151 L133.753815,13.5394151 L136.614043,7.1025535 L137.533558,7.1025535 L140.384285,13.5394151 L139.428051,13.5394151 Z" id="Fill-24" fill="#636463"></path>
        <path d="M147.888205,10.734933 C148.439504,10.734933 148.862414,10.6137347 149.157193,10.3715949 C149.451201,10.1291983 149.598591,9.7722796 149.598591,9.30032525 C149.598591,8.84069615 149.451201,8.49250785 149.157193,8.25653067 C148.862414,8.02081027 148.439504,7.9026933 147.888205,7.9026933 L146.251258,7.9026933 L146.251258,10.734933 L147.888205,10.734933 Z M149.524896,13.5394408 L148.246408,11.5163024 C148.099789,11.5288845 147.979874,11.5345335 147.888205,11.5345335 L146.251258,11.5345335 L146.251258,13.5394408 L145.368462,13.5394408 L145.368462,7.10257917 L147.888205,7.10257917 C148.703213,7.10257917 149.333084,7.29105278 149.777563,7.66825678 C150.222043,8.04494722 150.444411,8.58006847 150.444411,9.27259344 C150.444411,9.79384879 150.323213,10.2321655 150.081073,10.5875435 C149.838676,10.9431783 149.491258,11.2004679 149.037792,11.3599258 L150.536337,13.5394408 L149.524896,13.5394408 Z" id="Fill-25" fill="#636463"></path>
        <polygon id="Fill-26" fill="#636463" points="156.062825 13.5392867 156.945621 13.5392867 156.945621 7.10242511 156.062825 7.10242511"></polygon>
        <path d="M164.407583,8.16932953 C164.024474,8.38990014 163.71968,8.68878745 163.492947,9.06547789 C163.2657,9.44268188 163.152719,9.85814551 163.152719,10.3118688 C163.152719,10.765592 163.2657,11.1820827 163.492947,11.562368 C163.71968,11.9426534 164.024474,12.244622 164.407583,12.4680171 C164.790693,12.6921826 165.206414,12.8038802 165.653461,12.8038802 C166.101278,12.8038802 166.513404,12.6921826 166.890608,12.4680171 C167.267812,12.244622 167.567726,11.9426534 167.791635,11.562368 C168.015287,11.1820827 168.127241,10.765592 168.127241,10.3118688 C168.127241,9.85814551 168.015287,9.44268188 167.791635,9.06547789 C167.567726,8.68878745 167.267812,8.38990014 166.890608,8.16932953 C166.513404,7.94850214 166.101278,7.83808845 165.653461,7.83808845 C165.206414,7.83808845 164.790693,7.94850214 164.407583,8.16932953 M167.350494,7.4796291 C167.868411,7.76798859 168.277455,8.16162625 168.577883,8.66105563 C168.878311,9.1607418 169.028782,9.71126961 169.028782,10.3118688 C169.028782,10.9127247 168.878311,11.4658203 168.577883,11.9714123 C168.277455,12.4775178 167.868411,12.8757775 167.350494,13.1672183 C166.83232,13.4581455 166.263817,13.6037375 165.644474,13.6037375 C165.025387,13.6037375 164.456628,13.4581455 163.93871,13.1672183 C163.420536,12.8757775 163.011492,12.4775178 162.711321,11.9714123 C162.410893,11.4658203 162.260422,10.9127247 162.260422,10.3118688 C162.260422,9.71126961 162.410893,9.1607418 162.711321,8.66105563 C163.011492,8.16162625 163.419252,7.76798859 163.934345,7.4796291 C164.448924,7.19126961 165.019224,7.04721826 165.644474,7.04721826 C166.263817,7.04721826 166.83232,7.19126961 167.350494,7.4796291" id="Fill-27" fill="#636463"></path>
        <polygon id="Fill-28" fill="#636463" points="178.923081 7.10247646 179.79689 7.10247646 179.79689 13.5393381 178.904593 13.5393381 175.226534 8.55557204 175.226534 13.5393381 174.343738 13.5393381 174.343738 7.10247646 175.235777 7.10247646 178.923081 12.096"></polygon>
        <polygon id="Fill-29" fill="#636463" points="62.4644422 34.6840485 69.1734864 34.6840485 69.1585934 35.964077 63.8769672 35.964077 63.8769672 39.3483852 68.629378 39.3483852 68.629378 40.6284137 63.8769672 40.6284137 63.8769672 44.9833352 62.4644422 44.9833352"></polygon>
        <path d="M75.5368331,36.3907104 C74.9233951,36.7440342 74.4355207,37.2221512 74.0726961,37.8253181 C73.7098716,38.4287418 73.528331,39.0932782 73.528331,39.8189272 C73.528331,40.5448331 73.7098716,41.212194 74.0726961,41.8199829 C74.4355207,42.4285421 74.9233951,42.911281 75.5368331,43.2694836 C76.1497575,43.6274294 76.8142939,43.8064023 77.5304422,43.8064023 C78.246077,43.8064023 78.9057347,43.6274294 79.5091583,43.2694836 C80.1123252,42.911281 80.5927532,42.4285421 80.9509558,41.8199829 C81.3089016,41.212194 81.4878745,40.5448331 81.4878745,39.8189272 C81.4878745,39.0932782 81.3089016,38.4287418 80.9509558,37.8253181 C80.5927532,37.2221512 80.1123252,36.7440342 79.5091583,36.3907104 C78.9057347,36.0379001 78.246077,35.8612382 77.5304422,35.8612382 C76.8142939,35.8612382 76.1497575,36.0379001 75.5368331,36.3907104 M80.2445649,35.2876006 C81.0734379,35.7485136 81.7282168,36.3786419 82.2091583,37.1782425 C82.6895863,37.9775863 82.9296719,38.8580713 82.9296719,39.8189272 C82.9296719,40.7805535 82.6895863,41.6656605 82.2091583,42.4747618 C81.7282168,43.2838631 81.0734379,43.9219515 80.2445649,44.3874864 C79.4156919,44.853535 78.5061912,45.086174 77.5155492,45.086174 C76.5246505,45.086174 75.614893,44.853535 74.78602,44.3874864 C73.9571469,43.9219515 73.3026248,43.2838631 72.8221969,42.4747618 C72.3412553,41.6656605 72.1011698,40.7805535 72.1011698,39.8189272 C72.1011698,38.8580713 72.3412553,37.9775863 72.8221969,37.1782425 C73.3026248,36.3786419 73.9550927,35.7485136 74.7788302,35.2876006 C75.6028245,34.8264308 76.5151498,34.5961027 77.5155492,34.5961027 C78.5061912,34.5961027 79.4156919,34.8264308 80.2445649,35.2876006" id="Fill-30" fill="#636463"></path>
        <path d="M89.131378,43.0045678 C89.6557147,43.5394322 90.3795663,43.8064793 91.3013923,43.8064793 C92.2137175,43.8064793 92.9296091,43.5394322 93.4498374,43.0045678 C93.9692953,42.4697033 94.2294094,41.727107 94.2294094,40.7752382 L94.2294094,34.6839971 L95.6419344,34.6839971 L95.6419344,40.7752382 C95.6419344,42.1194608 95.2567703,43.1737832 94.4872126,43.9384622 C93.7166277,44.7036548 92.6551155,45.0862511 91.3013923,45.0862511 C89.9381683,45.0862511 88.8686961,44.7036548 88.0942596,43.9384622 C87.3193096,43.1737832 86.9315777,42.1194608 86.9315777,40.7752382 L86.9315777,34.6839971 L88.3443595,34.6839971 L88.3443595,40.7752382 C88.3443595,41.727107 88.6065278,42.4697033 89.131378,43.0045678" id="Fill-31" fill="#636463"></path>
        <polygon id="Fill-32" fill="#636463" points="107.882782 34.6840485 109.280414 34.6840485 109.280414 44.9833352 107.853509 44.9833352 101.968459 37.0088987 101.968459 44.9833352 100.555934 44.9833352 100.555934 34.6840485 101.982839 34.6840485 107.882782 42.6731213"></polygon>
        <path d="M120.602234,43.20303 C121.185372,42.8699914 121.647056,42.4088217 121.98523,41.8200342 C122.32366,41.2315036 122.492876,40.5746705 122.492876,39.8485078 C122.492876,39.1131013 122.321093,38.4506191 121.97804,37.8620884 C121.634474,37.2738146 121.166114,36.810077 120.572705,36.471903 C119.979039,36.1334722 119.319894,35.9642568 118.593732,35.9642568 L115.84289,35.9642568 L115.84289,43.7032297 L118.652534,43.7032297 C119.368939,43.7032297 120.018582,43.536582 120.602234,43.20303 M121.337641,35.3533866 C122.147255,35.8001769 122.782262,36.4154123 123.243175,37.2003766 C123.704088,37.9850842 123.934673,38.8630014 123.934673,39.8336148 C123.934673,40.8049986 123.701777,41.6826591 123.235729,42.4676234 C122.769937,43.252331 122.129795,43.8675663 121.315815,44.3138431 C120.501578,44.7601198 119.589252,44.9832582 118.579096,44.9832582 L114.430108,44.9832582 L114.430108,34.6839715 L118.623518,34.6839715 C119.623917,34.6839715 120.528539,34.9076234 121.337641,35.3533866" id="Fill-33" fill="#636463"></path>
        <path d="M129.584157,41.2022568 L133.909806,41.2022568 L131.732088,36.2000029 L129.584157,41.2022568 Z M135.542902,44.9832839 L134.454171,42.4820285 L129.025155,42.4820285 L127.951061,44.9832839 L126.464842,44.9832839 L131.040847,34.6839971 L132.512174,34.6839971 L137.07303,44.9832839 L135.542902,44.9832839 Z" id="Fill-34" fill="#636463"></path>
        <polygon id="Fill-35" fill="#636463" points="138.456514 34.6840485 146.504388 34.6840485 146.504388 35.97897 143.179138 35.97897 143.179138 44.9833352 141.766613 44.9833352 141.766613 35.97897 138.456514 35.97897"></polygon>
        <polygon id="Fill-36" fill="#636463" points="150.314893 44.9833096 151.727418 44.9833096 151.727418 34.6840228 150.314893 34.6840228"></polygon>
        <path d="M159.385147,36.3907104 C158.771709,36.7440342 158.283835,37.2221512 157.92101,37.8253181 C157.558185,38.4287418 157.376645,39.0932782 157.376645,39.8189272 C157.376645,40.5448331 157.558185,41.212194 157.92101,41.8199829 C158.283835,42.4285421 158.771709,42.911281 159.385147,43.2694836 C159.998071,43.6274294 160.662608,43.8064023 161.378756,43.8064023 C162.094391,43.8064023 162.754049,43.6274294 163.357472,43.2694836 C163.960639,42.911281 164.441067,42.4285421 164.79927,41.8199829 C165.157215,41.212194 165.336188,40.5448331 165.336188,39.8189272 C165.336188,39.0932782 165.157215,38.4287418 164.79927,37.8253181 C164.441067,37.2221512 163.960639,36.7440342 163.357472,36.3907104 C162.754049,36.0379001 162.094391,35.8612382 161.378756,35.8612382 C160.662608,35.8612382 159.998071,36.0379001 159.385147,36.3907104 M164.092879,35.2876006 C164.921752,35.7485136 165.576531,36.3786419 166.057472,37.1782425 C166.5379,37.9775863 166.777986,38.8580713 166.777986,39.8189272 C166.777986,40.7805535 166.5379,41.6656605 166.057472,42.4747618 C165.576531,43.2838631 164.921752,43.9219515 164.092879,44.3874864 C163.264006,44.853535 162.354505,45.086174 161.363863,45.086174 C160.372964,45.086174 159.463207,44.853535 158.634334,44.3874864 C157.805461,43.9219515 157.150939,43.2838631 156.670511,42.4747618 C156.189569,41.6656605 155.949484,40.7805535 155.949484,39.8189272 C155.949484,38.8580713 156.189569,37.9775863 156.670511,37.1782425 C157.150939,36.3786419 157.803407,35.7485136 158.627144,35.2876006 C159.451138,34.8264308 160.363464,34.5961027 161.363863,34.5961027 C162.354505,34.5961027 163.264006,34.8264308 164.092879,35.2876006" id="Fill-37" fill="#636463"></path>
        <polygon id="Fill-38" fill="#636463" points="178.328285 34.6840485 179.725917 34.6840485 179.725917 44.9833352 178.299013 44.9833352 172.413963 37.0088987 172.413963 44.9833352 171.001438 44.9833352 171.001438 34.6840485 172.428342 34.6840485 178.328285 42.6731213"></polygon>
        <path d="M26.1091926,0.0600599144 C23.1162111,0.0600599144 20.2534151,0.591072753 17.5775521,1.5216291 L17.5775521,20.2827133 L18.5024593,18.9087047 L23.6813752,10.347535 L32.5858545,10.347535 L24.2889073,22.1325278 L33.3785221,38.9374922 L24.8176091,38.9374922 L19.5857974,27.9189757 L17.5775521,30.1649957 L17.5775521,38.9374922 L10.0997204,38.9374922 L10.0997204,5.60000285 C4.022602,10.3606305 0.102659058,17.7485906 0.102659058,26.0668502 C0.102659058,40.4298745 11.7461683,52.0733837 26.1091926,52.0733837 C40.4722168,52.0733837 52.1157261,40.4298745 52.1157261,26.0668502 C52.1157261,11.703826 40.4722168,0.0600599144 26.1091926,0.0600599144" id="Fill-39" fill="#4A80B5"></path>
    </g>
</svg>
