<?xml version="1.0" encoding="UTF-8"?>
<svg width="180px" height="36px" viewBox="0 0 180 36" version="1.1" xmlns="http://www.w3.org/2000/svg" xmlns:xlink="http://www.w3.org/1999/xlink">
    <title>The Bill &amp; Melinda Gates Foundation</title>
    <desc>The Bill &amp; Melinda Gates Foundation logo</desc>
    <g id="gates_foundation-logo" fill="#000000">
        <path d="M56.2018389,33.640365 C56.2018389,33.9841966 56.0601596,34.2070824 55.7958066,34.3504896 C55.2671007,34.6545819 54.209689,34.7789832 53.4788308,34.7789832 C51.6058989,34.7789832 49.7554283,34.1673431 48.1503049,32.6002312 C47.4384525,31.912568 45.9940142,29.8340282 45.9940142,26.9693408 C45.9940142,24.5867087 46.8268124,22.7414215 48.0068977,21.8049556 C49.5532761,20.5834031 51.077193,20.4624573 52.3609462,20.4624573 C54.9820142,20.4624573 56.6303326,21.3349948 57.1400327,22.1090478 C57.4458528,22.5962866 57.546065,23.1664596 57.5667985,23.4515461 C57.5875321,23.6329648 57.6082657,23.7556384 57.7102057,23.7556384 C57.8518851,23.7556384 57.8898966,23.6554262 57.8898966,23.3306003 C57.8898966,21.2917999 58.0333037,20.7268102 58.0333037,20.4417237 C58.0333037,20.3587895 57.9952922,20.2793108 57.7879566,20.260305 C57.2799842,20.2395715 56.5664041,20.158365 56.1396382,20.0581528 C55.7560673,19.9769463 54.311629,19.7091378 53.0296036,19.7091378 C51.4659473,19.7091378 49.451336,19.852545 47.621599,20.9911632 C45.8108678,22.1297814 44.2247501,24.4260236 44.2247501,27.682921 C44.2247501,30.2245103 45.4048355,32.3963512 46.6436659,33.4779521 C48.9036244,35.4493685 51.7907732,35.6515207 53.3336959,35.6515207 C54.515509,35.6515207 56.3417905,35.4286349 57.6445494,34.7357883 C57.8881688,34.594109 57.9089024,34.5560974 57.9089024,33.640365 L57.9089024,31.3614008 C57.9089024,30.5078691 57.9089024,29.8979567 57.9486417,29.248305 C57.9901088,28.5347249 58.1507939,28.1891655 58.7019612,28.0854977 C58.9455806,28.0474861 59.0682541,28.0250248 59.2099335,28.0250248 C59.2928677,28.0250248 59.3723464,27.9870132 59.3723464,27.9023512 C59.3723464,27.784861 59.2721342,27.7433939 59.0475206,27.7433939 C58.4358804,27.7433939 57.1555829,27.802139 57.0553706,27.802139 C56.9551584,27.802139 55.673133,27.7433939 54.7556728,27.7433939 C54.532787,27.7433939 54.430847,27.7831332 54.430847,27.9023512 C54.430847,27.9870132 54.5137812,28.0250248 54.5949877,28.0250248 C54.7764064,28.0250248 55.1236936,28.0474861 55.2843787,28.0854977 C56.0998989,28.3101113 56.1983833,28.5347249 56.1983833,30.184771 L56.1983833,33.640365 L56.2018389,33.640365 Z" id="path2394"></path>
        <path d="M61.8724687,33.4433962 C61.5562818,34.3142058 61.2072668,34.9759521 60.4038412,35.0796199 C60.2656175,35.1003535 60.0237259,35.1141759 59.8993245,35.1141759 C59.8112068,35.1141759 59.7438228,35.1521874 59.7438228,35.2212993 C59.7438228,35.3249671 59.8474906,35.359523 60.0755598,35.359523 C60.8928078,35.359523 61.8517351,35.3094169 62.0435206,35.3094169 C62.235306,35.3094169 62.9834421,35.359523 63.4032968,35.359523 C63.5587985,35.359523 63.6641942,35.3232393 63.6641942,35.2212993 C63.6641942,35.1539152 63.6123602,35.1141759 63.4879589,35.1141759 L63.3151792,35.1141759 C63.0179981,35.1141759 62.6499773,34.9552185 62.6499773,34.6113869 C62.6499773,34.2969279 62.738095,33.8805288 62.8970523,33.4433962 L63.9406417,30.3592785 C63.9769254,30.2694331 64.0304871,30.2158714 64.116877,30.2158714 L67.8644687,30.2158714 C67.9508585,30.2158714 67.9871423,30.2521551 68.023426,30.3247226 L69.6440996,34.6113869 C69.7477674,34.8878344 69.6440996,35.0433362 69.5352484,35.0796199 C69.4661365,35.1003535 69.4143026,35.1314538 69.4143026,35.2022935 C69.4143026,35.3076891 69.606088,35.3076891 69.9378251,35.3215115 C71.138644,35.3577952 72.4120304,35.3577952 72.6746555,35.3577952 C72.8647132,35.3577952 73.0236705,35.3215115 73.0236705,35.2195715 C73.0236705,35.1314538 72.9545586,35.1124481 72.8474352,35.1124481 C72.6729277,35.1124481 72.4103026,35.0986257 72.151133,35.0087802 C71.7848401,34.9016568 71.2803233,34.6252093 70.653133,33.0736476 C69.5905379,30.4249348 66.8554352,23.2269325 66.5893545,22.5651862 C66.3820188,22.0243858 66.3111792,21.9397237 66.2075113,21.9397237 C66.1003879,21.9397237 66.031276,22.0451193 65.8239404,22.6170202 L61.8724687,33.4433962 Z M64.3086624,29.5904088 C64.2602841,29.5904088 64.2222726,29.5541251 64.2602841,29.4677353 L65.7928401,24.762944 C65.8792299,24.5003189 65.9656198,24.5003189 66.0537374,24.762944 L67.7089669,29.4677353 C67.7262449,29.5385749 67.7262449,29.5904088 67.6415829,29.5904088 L64.3086624,29.5904088 Z" id="path2396"></path>
        <path d="M77.692178,22.933207 L79.888208,22.9694907 C81.5607155,23.0023189 81.9632922,23.4048956 82.0324041,23.9249625 L82.0479542,24.1184757 C82.0652322,24.3620951 82.1015159,24.413929 82.1896336,24.413929 C82.2587455,24.413929 82.3088516,24.3413616 82.3088516,24.1875876 C82.3088516,23.9958022 82.3606855,22.7932554 82.3606855,22.269733 C82.3606855,22.1660651 82.3606855,22.0623973 82.2742956,22.0623973 C82.2017282,22.0623973 82.0462264,22.0969533 81.7853291,22.1487872 C81.5071538,22.1850709 81.1063049,22.235177 80.5464986,22.235177 L74.0119704,22.235177 C73.8046348,22.235177 73.1411607,22.2006211 72.6349162,22.1487872 C72.1666832,22.1125034 71.9904479,21.9414515 71.8712299,21.9414515 C71.802118,21.9414515 71.7330061,22.1677929 71.6932668,22.269733 C71.6604387,22.4079567 71.3114237,23.9094123 71.3114237,24.0839198 C71.3114237,24.1893154 71.3459796,24.2411493 71.3978135,24.2411493 C71.4669254,24.2411493 71.5222149,24.2065934 71.5740488,24.064914 C71.6241549,23.945696 71.6759888,23.8195669 71.8712299,23.5258414 C72.1494052,23.1059867 72.5640765,22.9850409 73.6456774,22.9694907 L76.2270061,22.933207 L76.2270061,30.3074446 C76.2270061,31.9782243 76.2270061,33.3552785 76.1388885,34.0878644 C76.0697766,34.5923812 75.9833868,34.9776799 75.632644,35.045064 C75.4754145,35.0813477 75.2680788,35.1159037 75.1108493,35.1159037 C75.0037259,35.1159037 74.9708977,35.1694654 74.9708977,35.2230271 C74.9708977,35.3266949 75.0590154,35.3612508 75.249073,35.3612508 C75.7743233,35.3612508 76.8697466,35.3111447 76.9544087,35.3111447 C77.0442541,35.3111447 78.143133,35.3612508 79.096877,35.3612508 C79.292118,35.3612508 79.3802357,35.3111447 79.3802357,35.2230271 C79.3802357,35.1711932 79.3439519,35.1159037 79.2368285,35.1159037 C79.0830546,35.1159037 78.6960281,35.0813477 78.4558643,35.045064 C77.9323418,34.9776799 77.8269462,34.5923812 77.7751123,34.0878644 C77.6887224,33.3552785 77.6887224,31.9782243 77.6887224,30.3074446 L77.6887224,22.933207 L77.692178,22.933207 Z" id="path2398"></path>
        <path d="M85.6987893,30.3057168 C85.6987893,31.9764965 85.6987893,33.3535507 85.6106717,34.0861366 C85.539832,34.5889256 85.4534421,34.9759521 85.1061549,35.0433362 C84.9489254,35.0796199 84.739862,35.1141759 84.5843602,35.1141759 C84.4789646,35.1141759 84.4444087,35.1677376 84.4444087,35.2212993 C84.4444087,35.3249671 84.5307985,35.359523 84.7208562,35.359523 C84.9852091,35.359523 85.3826024,35.3422451 85.7333452,35.3232393 C86.0979104,35.3232393 86.3950915,35.3076891 86.4296474,35.3076891 C86.935892,35.3076891 88.1021549,35.4096291 90.7335898,35.4096291 C91.4177974,35.4096291 91.5525655,35.4096291 91.6717835,34.9552185 C91.761629,34.5889256 91.8998527,33.4071124 91.8998527,33.2671609 C91.8998527,33.1462151 91.8998527,33.0045357 91.7979127,33.0045357 C91.7097951,33.0045357 91.6717835,33.0753754 91.6389554,33.2671609 C91.5180096,33.980741 91.3089462,34.329756 90.8562633,34.5249971 C90.4035805,34.713327 89.6347109,34.713327 89.1820281,34.713327 C87.4749646,34.713327 87.2140673,34.4869855 87.1605056,33.2861666 C87.1449554,32.9181459 87.1605056,30.8983512 87.1605056,30.3057168 L87.1605056,28.7679775 C87.1605056,28.7005934 87.1933337,28.6453039 87.2797236,28.6453039 C87.5803602,28.6453039 89.3047016,28.6815876 89.7712068,28.7368771 C90.4554144,28.8042612 90.6109162,29.1014423 90.6800281,29.3467895 C90.7491399,29.5765865 90.7491399,29.7459106 90.7491399,29.9204181 C90.7491399,30.0085357 90.7836959,30.0811032 90.8683579,30.0811032 C90.9910315,30.0811032 90.9910315,29.8875899 90.9910315,29.7476384 C90.9910315,29.623237 91.0273152,28.9839521 91.0601434,28.6314815 C91.1154329,28.0561251 91.2000949,27.7623996 91.2000949,27.6587318 C91.2000949,27.555064 91.1672668,27.520508 91.1154329,27.520508 C91.0445932,27.520508 90.9737535,27.6086257 90.8528078,27.7468494 C90.6955782,27.9230847 90.4536866,27.9541851 90.033832,27.9904688 C89.6312553,28.0267526 87.4870592,28.0267526 87.2624456,28.0267526 C87.1743279,28.0267526 87.15705,27.9731909 87.15705,27.8522451 L87.15705,23.043786 C87.15705,22.9228402 87.1898781,22.8675507 87.2624456,22.8675507 C87.4559588,22.8675507 89.35308,22.8848287 89.6485332,22.9211124 C90.5919104,23.0247802 90.7664179,23.2321159 90.8890915,23.5137468 C90.9754813,23.7210824 90.9927593,24.0165357 90.9927593,24.1392093 C90.9927593,24.2808887 91.029043,24.3655507 91.1344387,24.3655507 C91.2018227,24.3655507 91.2381065,24.2618829 91.2553845,24.1772208 C91.2899404,23.9647018 91.3227685,23.1992877 91.3400465,23.0247802 C91.3936082,22.5375415 91.4817259,22.3267503 91.4817259,22.2040767 C91.4817259,22.115959 91.4609923,22.0485749 91.4143418,22.0485749 C91.3227685,22.0485749 91.2553845,22.115959 91.1689946,22.133237 C91.0273152,22.1695207 90.7491399,22.2040767 90.4156751,22.2213546 C90.0182818,22.2386326 86.5488654,22.2386326 86.424464,22.2386326 C86.3346186,22.2386326 85.2374675,22.1885265 84.4530477,22.1885265 C84.2647178,22.1885265 84.1748723,22.2230824 84.1748723,22.3267503 C84.1748723,22.3941343 84.2439842,22.4304181 84.3148239,22.4304181 C84.4737812,22.4304181 84.7692345,22.4511516 84.9109139,22.4839798 C85.4845425,22.6066534 85.6193106,22.8848287 85.65905,23.4791909 C85.6936059,24.0355415 85.6936059,24.5227802 85.6936059,27.2406049 L85.6936059,30.3057168 L85.6987893,30.3057168 Z" id="path2400"></path>
        <path d="M97.4391699,35.6048702 C98.3773637,35.6048702 99.3224686,35.394079 100.070605,34.8688287 C101.271424,34.0187526 101.551327,32.6900767 101.551327,31.9764965 C101.551327,30.5838921 101.06236,29.504019 99.0028262,27.8816176 L98.5207708,27.4997745 C96.8776359,26.1572762 96.3955805,25.5594584 96.3955805,24.5711586 C96.3955805,23.3012278 97.3337743,22.5496361 98.5345932,22.5496361 C100.141444,22.5496361 100.609677,23.282222 100.70989,23.4722797 C100.818741,23.6640651 100.922409,24.1357537 100.941414,24.3430894 C100.962148,24.4830409 100.981154,24.5711586 101.079638,24.5711586 C101.171211,24.5711586 101.20404,24.4502128 101.20404,24.1737653 C101.20404,22.9850409 101.271424,22.4096845 101.271424,22.3215669 C101.271424,22.235177 101.236868,22.2023489 101.098644,22.2023489 C100.96042,22.2023489 100.818741,22.1850709 100.487004,22.1142312 C100.051599,22.0088356 99.5488101,21.9414515 98.8646024,21.9414515 C96.6547501,21.9414515 95.2604179,23.2113823 95.2604179,25.0774031 C95.2604179,26.2626718 95.6750892,27.342545 97.5255598,28.8560951 L98.3082518,29.5057468 C99.8097074,30.7393939 100.315952,31.435696 100.315952,32.6399706 C100.315952,33.7561274 99.4917928,34.9552185 97.8227408,34.9552185 C96.6547501,34.9552185 95.5040373,34.4731632 95.2396843,33.180771 C95.191306,32.9371516 95.191306,32.6918045 95.191306,32.5363027 C95.191306,32.3963512 95.174028,32.3427895 95.0669046,32.3427895 C94.9822426,32.3427895 94.9494144,32.4343627 94.9286809,32.6244204 C94.9114029,32.9025957 94.8440188,33.5971701 94.8440188,34.4731632 C94.8440188,34.9413962 94.8612968,35.0122358 95.1031884,35.1331816 C95.8150407,35.478741 96.6236497,35.6048702 97.4391699,35.6048702" id="path2402"></path>
        <path d="M113.222596,27.069553 C113.435115,26.9175069 113.466215,26.7015323 113.364275,26.5408471 L111.579461,26.5408471 C111.963031,25.3279336 112.248118,24.1737653 112.921959,23.2148379 C113.262335,22.7310548 113.618261,22.4459683 114.032932,22.4459683 C114.407864,22.4459683 114.862275,22.70341 114.907198,23.5603973 C114.92102,23.6623373 114.978037,23.7901943 115.105894,23.7901943 C115.335691,23.7901943 115.719262,23.3478783 115.719262,22.9038345 C115.719262,22.3302059 115.145634,21.9604573 114.547816,21.9604573 C113.708106,21.9604573 112.866669,22.3025611 112.147906,23.1474538 C111.308196,24.1461205 110.933264,25.2588218 110.561788,26.5425749 L109.340236,26.5425749 C109.14845,26.6721597 109.089705,26.9451516 109.23484,27.0712808 L110.420109,27.0712808 C109.735901,29.402079 109.262485,31.8555507 108.533354,34.2416384 C108.236173,35.2109325 107.895797,35.4269071 107.6349,35.4269071 C107.348086,35.4269071 106.976609,35.2282105 106.781368,34.8947456 C106.663878,34.7115992 106.565394,34.5975646 106.363241,34.7703443 C106.264757,34.8411839 106.097161,34.9655853 106.097161,35.2852278 C106.097161,35.5271193 106.363241,36.0126303 107.021532,36.0126303 C107.864697,36.0126303 108.476337,35.4545519 108.645661,35.2852278 C108.948026,35.0122358 109.379975,34.2260882 109.777368,32.942335 C110.249057,31.3734954 110.662,29.7873777 111.119867,28.2012601 C111.244268,27.776222 111.363486,27.3149002 111.44642,27.0730086 L113.222596,27.0730086 L113.222596,27.069553 Z" id="path2404"></path>
        <path d="M118.310958,26.3456061 C117.726962,26.3456061 117.08595,26.5581251 116.339541,27.2734331 C115.370247,28.1978045 114.841541,29.5852255 114.784524,30.4715853 C114.699862,31.6965934 115.299408,32.372162 116.211684,32.372162 C116.602166,32.372162 117.365853,32.2978667 118.252213,31.3855899 C119.31308,30.3005334 119.726023,28.9286626 119.767491,28.142515 C119.826236,27.104109 119.326902,26.3456061 118.310958,26.3456061 M118.217657,26.7723719 C118.713534,26.7723719 118.798196,27.2734331 118.784374,27.7140213 C118.756729,28.4707964 118.086344,30.3540951 117.45397,31.1972601 C116.997832,31.810628 116.640178,31.9419406 116.330902,31.9419406 C115.912775,31.9419406 115.714079,31.5272693 115.746907,31.0296637 C115.783191,30.2728887 116.341269,28.5727364 117.170612,27.4583073 C117.581827,26.9019567 117.927387,26.7723719 118.217657,26.7723719" id="path2406"></path>
        <path d="M124.850669,26.7723719 C124.935331,26.5270248 124.60705,26.3456061 124.41872,26.3456061 C123.750063,26.3456061 122.319447,27.4704019 121.951426,28.0388471 C121.937604,28.1684319 122.04991,28.2824665 122.195045,28.2548218 C122.535421,27.8971678 123.278374,27.2734331 123.551366,27.2734331 C123.665401,27.2734331 123.64985,27.4151124 123.551366,27.6846488 L122.23824,31.1575207 C121.994621,31.7812554 122.065461,32.3704342 122.649456,32.3704342 C123.418326,32.3704342 125.191045,30.5406972 126.22254,29.2431217 L126.248457,29.256944 L125.275707,31.8676453 C125.191045,32.0939867 125.40702,32.3704342 125.633361,32.3704342 C126.397048,32.3704342 127.760279,31.2421828 128.133484,30.5545196 C128.119661,30.3851955 128.002171,30.3281782 127.874314,30.3540951 C127.502838,30.7998667 126.751246,31.470252 126.479982,31.470252 C126.334847,31.470252 126.348669,31.2992001 126.422965,31.112598 C127.020782,29.4176291 127.948609,27.069553 128.090289,26.6877099 C128.036727,26.5149302 127.68944,26.371523 127.392259,26.4285403 C126.924026,27.29935 126.177617,28.9563073 124.878314,30.2417883 C124.135361,30.9691909 123.565188,31.4253293 123.352669,31.4253293 C123.193712,31.4253293 123.119417,31.2836499 123.254185,30.9432739 L124.850669,26.7723719 Z" id="path2408"></path>
        <path d="M133.126817,26.9313293 C133.25813,26.5995922 133.099172,26.3456061 132.755341,26.3456061 C132.043488,26.3456061 131.169223,26.9313293 130.63015,27.6725542 C130.616328,27.784861 130.683712,27.8850732 130.80293,27.8850732 C131.271163,27.4738575 131.772224,27.1749486 132.102233,27.1749486 C132.216268,27.1749486 132.216268,27.3131724 132.145428,27.4997745 C132.071133,27.7019267 130.559311,31.810628 130.488471,31.9989579 C130.357158,32.3237837 130.740729,32.372162 130.899687,32.372162 C131.027544,32.372162 131.088016,32.3255115 131.155401,32.1959267 C131.998566,30.627087 132.586016,29.5143858 133.346247,28.5710086 C134.122028,27.5878921 134.972104,26.874312 135.310752,26.874312 C135.526727,26.874312 135.544005,27.0453639 135.544005,27.214688 C135.544005,27.4997745 135.355675,27.9991078 135.243368,28.2565496 C134.913359,28.9701297 134.384653,30.3713731 134.085744,31.0711309 C133.785108,31.7829832 133.741913,31.8866511 133.741913,32.0127802 C133.741913,32.1838321 133.957887,32.372162 134.085744,32.372162 C134.868436,32.372162 135.998416,31.6862266 136.544399,30.7687664 C136.544399,30.6564596 136.511571,30.542425 136.309419,30.5717975 C135.901659,31.0711309 135.212268,31.5445473 134.973832,31.5445473 C134.868436,31.5445473 134.883986,31.4149625 134.939276,31.2715553 C134.985927,31.1609763 136.008782,28.8301782 136.26968,28.116598 C136.38717,27.7883166 136.499477,27.3477283 136.499477,27.1179313 C136.499477,26.6462428 136.25413,26.3490617 135.699507,26.3490617 C134.626545,26.3490617 133.214935,27.9179014 132.204173,29.4608241 L132.160978,29.4331793 L133.126817,26.9313293 Z" id="path2410"></path>
        <path d="M143.79078,26.7896499 C143.637006,26.4872854 143.289719,26.3456061 143.063377,26.3456061 C142.37917,26.3456061 141.47726,26.7429994 140.506238,27.6138091 C139.379714,28.6262981 138.610845,30.3281782 138.610845,31.3389394 C138.610845,31.9108402 138.906298,32.3704342 139.462649,32.3704342 C140.846614,32.3704342 141.924759,30.984741 142.90442,29.6698875 L142.957982,29.6819821 L142.462104,31.0970478 C142.320425,31.5099913 142.275502,31.7380605 142.275502,31.9108402 C142.275502,32.1406372 142.432732,32.3704342 142.733368,32.3704342 C143.479777,32.3704342 144.772169,31.1955323 145.160923,30.4128402 C145.148828,30.2832554 145.077989,30.2279659 144.946676,30.2279659 C144.500905,30.7843166 143.604178,31.5117191 143.377837,31.5117191 C143.24998,31.5117191 143.232702,31.3700398 143.289719,31.1834377 C143.421031,30.754944 144.089689,28.4725242 145.503027,24.5711586 C145.931521,23.3893454 146.147495,22.8468172 146.401481,22.0451193 L146.344464,21.9604573 C145.734552,21.9466349 144.938037,22.133237 144.659862,22.2317214 C144.602845,22.2870109 144.585567,22.3734008 144.616667,22.4286903 L144.946676,22.6602151 C145.148828,22.7897999 145.105634,23.0472416 144.818819,23.8454838 L143.79078,26.7896499 Z M143.034005,26.7723719 C143.391659,26.7723719 143.578261,27.1991378 143.405481,27.7986834 C143.196418,28.5554584 142.774835,29.4176291 141.667318,30.5562474 C140.679018,31.5670086 139.953343,31.827906 139.737368,31.827906 C139.609511,31.827906 139.464376,31.6965934 139.464376,31.5255415 C139.464376,31.3406672 139.464376,31.0832255 139.90842,30.1709486 C140.349008,29.2707664 141.37532,27.9144458 141.948948,27.3857399 C142.322153,27.0453639 142.703996,26.7723719 143.034005,26.7723719 Z" id="path2412"></path>
        <path d="M151.740374,26.9313293 C151.669534,26.7896499 151.510577,26.6583373 151.45356,26.6289648 C151.368898,26.5874977 151.268685,26.5391193 151.113184,26.5391193 C150.741707,26.5391193 150.380598,26.6427872 149.827703,26.9555184 C149.240252,27.2837999 148.626884,27.8557007 147.940948,28.7956222 C146.995843,30.0983812 146.681384,31.240455 146.681384,31.5652808 C146.681384,31.9678575 146.911181,32.3704342 147.31203,32.3704342 C147.980688,32.3704342 149.440676,31.3838621 150.453165,30.1277537 L150.49636,30.1450317 L150.024672,31.4236015 C149.914093,31.7553385 149.882992,31.8849233 149.882992,31.9816799 C149.882992,32.0922589 149.97111,32.3704342 150.294208,32.3704342 C151.080356,32.3704342 152.092845,31.5652808 152.697574,30.7670386 C152.697574,30.6547318 152.592178,30.5838921 152.495421,30.5838921 C151.685085,31.2992001 151.266958,31.5428195 151.023338,31.5428195 C150.909304,31.5428195 150.838464,31.4547018 150.921398,31.2128102 C151.380992,29.9135069 152.621551,26.7585496 152.837525,26.2281159 C152.749407,26.0466972 152.377931,25.9015623 152.141223,26.0190524 L151.740374,26.9313293 Z M150.667412,27.086831 C151.038888,27.086831 151.279052,27.3304504 151.38272,27.6017145 C151.152923,28.4431516 150.553377,29.6716153 149.470049,30.6841043 C148.656256,31.4253293 148.227763,31.6102035 148.082628,31.6102035 C147.954771,31.6102035 147.870109,31.5117191 147.870109,31.3406672 C147.870109,30.329906 148.740918,28.456974 149.654923,27.6431816 C150.100695,27.2423327 150.327036,27.086831 150.667412,27.086831 Z" id="path2414"></path>
        <path d="M158.97466,27.2285103 C159.157807,27.1265703 159.24938,26.8432116 159.149168,26.7015323 L157.590695,26.7015323 L158.005366,25.2985611 C157.891331,25.1568817 157.604517,25.1275092 157.464565,25.2156268 L156.662868,26.627237 L155.520794,26.8259336 C155.380842,26.8829509 155.334192,27.0833754 155.36702,27.2250548 L156.474538,27.2250548 L155.138951,31.1661597 C154.997271,31.5929256 154.936798,31.7916222 154.936798,31.9799521 C154.936798,32.151004 155.121673,32.3687064 155.325553,32.3687064 C155.923371,32.3687064 157.265869,31.4927133 158.062383,30.3143558 C158.096939,30.1433039 158.008822,30.056914 157.867142,30.056914 C157.397181,30.5959867 156.453804,31.3389394 156.241285,31.3389394 C156.123795,31.3389394 156.056411,31.2525496 156.13589,30.984741 L157.424826,27.2267826 L158.97466,27.2267826 L158.97466,27.2285103 Z" id="path2416"></path>
        <path d="M160.379359,31.8538229 C160.311975,32.0127802 160.35517,32.142365 160.439832,32.2425772 C160.510672,32.3255115 160.595334,32.372162 160.666173,32.372162 C161.654473,32.372162 163.126556,31.0849533 163.33562,30.6685542 C163.33562,30.5441528 163.26478,30.4422128 163.126556,30.4301182 C162.641045,30.9864688 161.880815,31.4840744 161.640651,31.4840744 C161.524888,31.4840744 161.540439,31.3130225 161.595728,31.1696153 L163.299336,27.1144757 C163.472116,26.7015323 163.472116,26.5719475 163.383998,26.4872854 C163.323525,26.4285403 163.252685,26.3456061 163.152473,26.3456061 C162.68424,26.3456061 161.585361,26.874312 160.799214,27.7710386 C160.768113,27.8833454 160.852775,27.9991078 160.984088,28.014658 C161.69594,27.427207 162.0726,27.2578829 162.169357,27.2578829 C162.267841,27.2578829 162.267841,27.3701897 162.200457,27.5308748 L160.379359,31.8538229 Z M163.52395,22.9176568 C162.967599,22.9176568 162.751624,23.5051078 162.751624,23.8178391 C162.751624,24.073553 162.896759,24.3586395 163.26478,24.3586395 C163.710552,24.3586395 164.023283,23.9042289 164.023283,23.4601851 C164.023283,23.1474538 163.852231,22.9176568 163.52395,22.9176568 Z" id="path2418"></path>
        <path d="M169.443382,26.3456061 C168.855931,26.3456061 168.211463,26.5581251 167.470238,27.2734331 C166.497488,28.1978045 165.97051,29.5852255 165.913493,30.4715853 C165.828831,31.6965934 166.426649,32.372162 167.344109,32.372162 C167.729407,32.372162 168.498277,32.2978667 169.382909,31.3855899 C170.442049,30.3005334 170.853264,28.9286626 170.898187,28.142515 C170.955204,27.104109 170.452416,26.3456061 169.443382,26.3456061 M169.341442,26.7723719 C169.844231,26.7723719 169.927165,27.2734331 169.913343,27.7140213 C169.882243,28.4707964 169.211857,30.3540951 168.586395,31.1972601 C168.130256,31.810628 167.772602,31.9419406 167.45296,31.9419406 C167.0452,31.9419406 166.844775,31.5272693 166.87242,31.0296637 C166.912159,30.2728887 167.471966,28.5727364 168.29958,27.4583073 C168.714252,26.9019567 169.054628,26.7723719 169.341442,26.7723719" id="path2420"></path>
        <path d="M175.749841,26.9313293 C175.879426,26.5995922 175.720469,26.3456061 175.383548,26.3456061 C174.669968,26.3456061 173.797431,26.9313293 173.251447,27.6725542 C173.237624,27.784861 173.31192,27.8850732 173.424226,27.8850732 C173.895915,27.4738575 174.398704,27.1749486 174.726985,27.1749486 C174.835837,27.1749486 174.835837,27.3131724 174.766725,27.4997745 C174.695885,27.7019267 173.180607,31.810628 173.109767,31.9989579 C172.98191,32.3237837 173.365481,32.372162 173.524439,32.372162 C173.655751,32.372162 173.709313,32.3255115 173.780153,32.1959267 C174.623317,30.627087 175.207313,29.5143858 175.965816,28.5710086 C176.750236,27.5878921 177.596856,26.874312 177.93896,26.874312 C178.151479,26.874312 178.165301,27.0453639 178.165301,27.214688 C178.165301,27.4997745 177.982155,27.9991078 177.864665,28.2565496 C177.538111,28.9701297 177.011133,30.3713731 176.710496,31.0711309 C176.40986,31.7829832 176.366665,31.8866511 176.366665,32.0127802 C176.366665,32.1838321 176.579184,32.372162 176.710496,32.372162 C177.496644,32.372162 178.623168,31.6862266 179.167424,30.7687664 C179.167424,30.6564596 179.134595,30.542425 178.937627,30.5717975 C178.5195,31.0711309 177.838748,31.5445473 177.598584,31.5445473 C177.496644,31.5445473 177.510466,31.4149625 177.564028,31.2715553 C177.607223,31.1609763 178.63699,28.8301782 178.894432,28.116598 C179.008466,27.7883166 179.124229,27.3477283 179.124229,27.1179313 C179.124229,26.6462428 178.877154,26.3490617 178.320803,26.3490617 C177.254752,26.3490617 175.839687,27.9179014 174.82547,29.4608241 L174.782275,29.4331793 L175.749841,26.9313293 Z" id="path2422"></path>
        <path d="M2.00775821,10.1198645 C2.00775821,12.0722751 2.00775821,13.6791263 1.90754599,14.5343858 C1.82461173,15.1235646 1.72439951,15.5727918 1.31491162,15.6505427 C1.13176513,15.6920098 0.888145758,15.7334769 0.703271479,15.7334769 C0.584053486,15.7334769 0.540858561,15.7939498 0.540858561,15.8561505 C0.540858561,15.9753685 0.642798584,16.0168356 0.865684397,16.0168356 C1.47732453,16.0168356 2.75762211,15.9563627 2.85783434,15.9563627 C3.02197505,15.9563627 5.09533145,16.0790363 5.56356444,16.0790363 C9.039892,16.0790363 10.7486832,13.8208056 10.7486832,11.6455092 C10.7486832,9.26633274 8.73579973,7.82362224 7.23088854,7.35711705 C8.18636029,6.35845039 9.14010423,5.36151152 9.14010423,3.69418741 C9.14010423,2.67824278 8.4075183,0.644625707 5.07287009,0.644625707 C4.13813191,0.644625707 3.34680089,0.705098602 2.85783434,0.705098602 C2.75589431,0.705098602 1.47559674,0.644625707 0.561592125,0.644625707 C0.335250718,0.644625707 0.236766289,0.686092835 0.236766289,0.805310828 C0.236766289,0.889972881 0.317972748,0.929712212 0.399179207,0.929712212 C0.582325689,0.929712212 0.926157292,0.950445776 1.09029801,0.991912904 C1.76241104,1.13359226 1.92309616,1.46014589 1.96456329,2.14953689 C2.00430262,2.80091636 2.00430262,3.36763378 2.00430262,6.54159687 L2.00430262,10.1198645 L2.00775821,10.1198645 Z M3.63361519,1.53789676 C3.63361519,1.41867876 3.69581588,1.35647807 3.87896236,1.31328315 C4.2037882,1.23207669 4.63228186,1.21307092 4.85343987,1.21307092 C6.84731761,1.21307092 7.59890931,3.02380218 7.59890931,4.71013205 C7.59890931,5.5429302 7.29481703,6.27551613 6.86805117,6.76275488 C6.44128532,7.25172143 6.15447101,7.29318856 5.01585279,7.29318856 C4.26598889,7.29318856 3.89969593,7.23444346 3.77529454,7.2119821 C3.67508232,7.17051498 3.63361519,7.13077564 3.63361519,6.98736849 L3.63361519,1.53789676 Z M3.63361519,7.98430736 C3.63361519,7.88063954 3.67508232,7.84090021 3.75628878,7.84090021 C4.06038105,7.84090021 5.07632569,7.84090021 5.34067863,7.88063954 C5.82964518,7.94284023 6.3376175,8.00158533 7.03046409,8.47154612 C8.59412038,9.54969144 9.00533606,11.3172278 9.00533606,12.5387803 C9.00533606,14.8367503 7.23607194,15.4276568 6.13719304,15.4276568 C5.77090008,15.4276568 4.8966348,15.3879175 4.34719535,15.1218368 C3.71827724,14.8160167 3.71827724,14.532658 3.65607655,13.5339913 C3.63534299,13.2298991 3.63534299,10.7090432 3.63534299,9.14365915 L3.63534299,7.98430736 L3.63361519,7.98430736 Z" id="path2424"></path>
        <path d="M16.6871215,7.88582293 C16.6871215,5.16972605 16.6871215,4.6824873 16.7234053,4.12268107 C16.7562334,3.51104093 16.896185,3.21558764 17.3661457,3.12919779 C17.5752092,3.09291406 17.6806048,3.07736388 17.8032784,3.07736388 C17.8723903,3.07736388 17.9449577,3.04108015 17.9449577,2.97024047 C17.9449577,2.86657265 17.8551123,2.83201671 17.661599,2.83201671 C17.1398043,2.83201671 16.0426532,2.88385062 15.9545356,2.88385062 C15.8681457,2.88385062 14.7709947,2.83201671 14.1956383,2.83201671 C14.0038528,2.83201671 13.9174629,2.86830045 13.9174629,2.97024047 C13.9174629,3.04108015 13.9865748,3.07736388 14.0556867,3.07736388 C14.1783603,3.07736388 14.4047017,3.09464185 14.5947594,3.14647576 C14.9817859,3.23459341 15.1545656,3.53177449 15.1891215,4.12268107 C15.2254053,4.6807595 15.2254053,5.16799825 15.2254053,7.88582293 L15.2254053,10.9526626 C15.2254053,12.6251701 15.2254053,14.0039521 15.1372876,14.7330824 C15.0681757,15.239327 14.9817859,15.6246257 14.6327709,15.6971932 C14.4755414,15.7300213 14.2664779,15.7628495 14.1092484,15.7628495 C14.0038528,15.7628495 13.9692968,15.8164112 13.9692968,15.8682451 C13.9692968,15.9736407 14.0574145,16.0064688 14.2492,16.0064688 C14.7727224,16.0064688 15.8698735,15.9563627 15.9545356,15.9563627 C16.044381,15.9563627 17.1415321,16.0064688 18.0987317,16.0064688 C18.2922449,16.0064688 18.3786348,15.9563627 18.3786348,15.8682451 C18.3786348,15.818139 18.3423511,15.7628495 18.2386832,15.7628495 C18.0831815,15.7628495 17.6978828,15.7282935 17.4542634,15.6971932 C16.9307409,15.6246257 16.8305287,15.239327 16.7752392,14.7330824 C16.6871215,14.0022243 16.6871215,12.6234423 16.6871215,10.9526626 L16.6871215,7.88582293 Z" id="path2426"></path>
        <path d="M24.2462334,7.88582293 C24.2462334,5.16972605 24.2462334,4.6824873 24.2825171,4.12268107 C24.3188009,3.51104093 24.4570246,3.21558764 24.9615414,3.12919779 C25.1706048,3.09291406 25.4142242,3.07736388 25.5386256,3.07736388 C25.6060096,3.07736388 25.6768493,3.04108015 25.6768493,2.97024047 C25.6768493,2.86657265 25.5887317,2.83201671 25.3969462,2.83201671 C24.8734237,2.83201671 23.6017651,2.88385062 23.5153753,2.88385062 C23.4272576,2.88385062 22.3283787,2.83201671 21.5456867,2.83201671 C21.355629,2.83201671 21.2675114,2.86830045 21.2675114,2.97024047 C21.2675114,3.04108015 21.3366233,3.07736388 21.4057351,3.07736388 C21.5629647,3.07736388 21.8601457,3.09464185 21.9983695,3.12919779 C22.5737259,3.25014358 22.7136775,3.5300467 22.7482334,4.12268107 C22.7845171,4.6807595 22.7845171,5.16799825 22.7845171,7.88582293 L22.7845171,10.9526626 C22.7845171,12.6251701 22.7845171,14.0039521 22.6946717,14.7330824 C22.6255598,15.239327 22.5374422,15.6246257 22.1884272,15.6971932 C22.0311976,15.7300213 21.823862,15.7628495 21.6666325,15.7628495 C21.5612369,15.7628495 21.5266809,15.8164112 21.5266809,15.8682451 C21.5266809,15.9736407 21.6147986,16.0064688 21.8048562,16.0064688 C22.0674814,16.0064688 22.4510523,15.9909187 22.7983395,15.9719129 C23.1490823,15.9719129 23.4445356,15.9546349 23.5136475,15.9546349 C24.5244087,15.9546349 25.6751215,16.0600305 28.1838828,16.0600305 C29.1082542,16.0600305 29.1583603,15.9909187 29.2827617,15.5900698 C29.4227132,15.0838252 29.543659,14.0385081 29.543659,13.8484504 C29.543659,13.6549371 29.5246532,13.5858252 29.4365356,13.5858252 C29.3345956,13.5858252 29.2983118,13.6739429 29.2810339,13.8138944 C29.2291999,14.1439037 29.0529647,14.5793085 28.8266232,14.8592116 C28.4102242,15.3637283 27.6413545,15.3810063 26.7169831,15.3810063 C25.3589347,15.3810063 24.9045241,15.2600605 24.6263487,14.9801574 C24.3136175,14.6674262 24.2427778,13.5529971 24.2427778,10.9889463 L24.2427778,7.88582293 L24.2462334,7.88582293 Z" id="path2428"></path>
        <path d="M34.0307478,7.88582293 C34.0307478,5.16972605 34.0307478,4.6824873 34.0670315,4.12268107 C34.1033153,3.51104093 34.2398112,3.21558764 34.7460558,3.12919779 C34.9551192,3.09291406 35.2004664,3.07736388 35.32314,3.07736388 C35.3905241,3.07736388 35.4613637,3.04108015 35.4613637,2.97024047 C35.4613637,2.86657265 35.3732461,2.83201671 35.1831884,2.83201671 C34.6596659,2.83201671 33.3897351,2.88385062 33.2998897,2.88385062 C33.211772,2.88385062 32.1128931,2.83201671 31.3302011,2.83201671 C31.1384156,2.83201671 31.050298,2.86830045 31.050298,2.97024047 C31.050298,3.04108015 31.1211377,3.07736388 31.1902495,3.07736388 C31.3474791,3.07736388 31.6429324,3.09464185 31.7846117,3.12919779 C32.3582403,3.25014358 32.4981919,3.5300467 32.5344756,4.12268107 C32.5690315,4.6807595 32.5690315,5.16799825 32.5690315,7.88582293 L32.5690315,10.9526626 C32.5690315,12.6251701 32.5690315,14.0039521 32.4826417,14.7330824 C32.411802,15.239327 32.3254122,15.6246257 31.978125,15.6971932 C31.8208954,15.7300213 31.6101042,15.7628495 31.4528747,15.7628495 C31.3474791,15.7628495 31.3146509,15.8164112 31.3146509,15.8682451 C31.3146509,15.9736407 31.4010408,16.0064688 31.5928262,16.0064688 C31.8537236,16.0064688 32.2390223,15.9909187 32.5845817,15.9719129 C32.9353245,15.9719129 33.22905,15.9546349 33.2998897,15.9546349 C34.3106509,15.9546349 35.4613637,16.0600305 37.970125,16.0600305 C38.8927686,16.0600305 38.9480581,15.9909187 39.0707317,15.5900698 C39.2072276,15.0838252 39.3299012,14.0385081 39.3299012,13.8484504 C39.3299012,13.6549371 39.3126232,13.5858252 39.2245056,13.5858252 C39.11911,13.5858252 39.0862818,13.6739429 39.0690039,13.8138944 C39.01717,14.1439037 38.8409347,14.5793085 38.6128655,14.8592116 C38.1964664,15.3637283 37.4293245,15.3810063 36.5049531,15.3810063 C35.1451769,15.3810063 34.6907663,15.2600605 34.4143187,14.9801574 C34.0998597,14.6674262 34.02902,13.5529971 34.02902,10.9889463 L34.02902,7.88582293 L34.0307478,7.88582293 Z" id="path2430"></path>
        <path d="M45.7331169,14.3892508 C46.7628839,14.3892508 48.2332392,13.9469348 49.2664618,12.7858552 C50.3981688,11.5055576 50.7229946,10.047297 50.7661896,9.60498095 C50.7955621,9.32507783 50.8249347,8.62013666 50.8249347,8.35405592 C51.2810731,8.72207668 51.766584,9.28015511 51.8391515,9.39937311 C51.9169024,9.5151355 52.030937,9.58770298 52.1933499,9.48576296 C52.4577028,9.32335004 53.0468816,9.14884254 53.2974122,9.11774219 C53.4598251,9.08836965 53.5928654,9.07627507 53.6809831,8.97087945 C53.7984733,8.85338925 53.9608862,8.61840886 53.9608862,8.27976065 C53.9608862,7.89791751 53.8140235,7.45560148 53.4166302,7.45560148 C53.1522772,7.45560148 52.9466694,7.64738695 52.9466694,7.82362224 C52.9466694,7.86854496 52.9760419,7.94111244 53.0054145,8.04478026 C53.034787,8.1328979 53.0641596,8.2503881 53.0641596,8.41280102 C53.0641596,8.66333158 52.9172968,8.86893943 52.7669785,8.86893943 C52.5060811,8.86893943 52.4594306,8.79464416 52.1225102,8.48536849 C51.3985633,7.83917241 50.9735252,7.33811128 50.1631884,7.33811128 C49.9575806,7.33811128 49.2941065,7.45560148 48.7066555,7.94284023 C47.970614,8.54756918 47.7045333,9.20758764 47.7045333,9.58943078 C47.7045333,9.98509629 48.0293591,10.1803373 48.3386348,10.1803373 C48.7515783,10.1803373 48.8241457,9.87106169 48.8241457,9.76739387 C48.8241457,9.67927622 48.7654006,9.5168633 48.7187501,9.35790598 C48.677283,9.19376526 48.6012599,9.00543539 48.6012599,8.87066722 C48.6012599,8.36960609 49.2180834,7.92901786 49.6759496,7.92901786 C49.9731307,7.92901786 50.2806786,8.03095788 50.4413637,8.18127622 C50.3981688,9.38555073 50.2046555,10.12332 49.6465771,11.1530871 C48.7930454,12.7288379 47.2915898,13.5529971 46.0700373,13.5529971 C44.9383303,13.5529971 43.4351469,12.9223512 43.4645194,11.0373247 L43.4645194,10.9198345 C44.9953476,9.87624508 47.4678251,8.00331313 48.6893776,6.79731082 C50.0577928,5.45999595 50.5433037,4.54599133 50.5433037,3.78057726 C50.5433037,3.20694866 50.2046555,3.00134081 49.8660073,3.00134081 C49.5861042,3.00134081 49.2768285,3.20694866 49.2768285,3.60606976 C49.2768285,3.76675489 49.3182957,3.81167761 49.4375137,3.9308956 C49.5429093,4.03283562 49.6172045,4.16587599 49.6172045,4.37321163 C49.6172045,4.75505477 49.2923787,5.34423355 49.0867709,5.60685869 C48.6755552,6.15111475 47.6578828,7.18260955 47.0116867,7.71304323 C46.8786463,7.52471336 46.7317836,7.13941463 46.0838597,7.13941463 C45.7607616,7.13941463 44.846757,7.28627737 43.8895575,8.28667184 C42.7129277,9.49267414 42.4779473,10.7159544 42.4779473,11.4519959 C42.4814029,12.9638183 43.4092299,14.3892508 45.7331169,14.3892508 M43.4973476,10.3565726 C43.5992876,9.73974911 43.834268,9.15057034 44.2921342,8.54756918 C44.7344502,7.97221278 45.2165056,7.75278256 45.425569,7.75278256 C45.7054721,7.75278256 45.9093522,7.92901786 45.9093522,8.20719318 C45.9093522,8.23829352 45.9093522,8.42835119 45.8955298,8.56139156 C45.4100189,8.98815742 44.5426648,9.6343535 43.4973476,10.3565726" id="path2432"></path>
        <path d="M73.0495875,0.782849467 C73.0081203,0.395822939 72.9441918,0.235137818 72.8025125,0.235137818 C72.6591053,0.235137818 72.5778989,0.376817172 72.4966924,0.559963654 L66.5185148,13.3318391 L60.29499,0.540957887 C60.1913222,0.31461648 60.1135713,0.235137818 59.9891699,0.235137818 C59.8682241,0.235137818 59.8077513,0.376817172 59.7645563,0.601430782 L58.3011123,13.860545 C58.2199058,14.6328702 58.1594329,15.4242012 57.4855921,15.5486026 C57.1814998,15.6108033 57.0398205,15.6108033 56.8756797,15.6108033 C56.7737397,15.6108033 56.6752553,15.6488149 56.6752553,15.7110155 C56.6752553,15.8561505 56.8152069,15.894162 57.0190869,15.894162 C57.5685263,15.894162 58.5430039,15.8336891 58.7261503,15.8336891 C58.890291,15.8336891 59.8647686,15.894162 60.6198158,15.894162 C60.8617074,15.894162 60.9826532,15.8561505 60.9826532,15.7110155 C60.9826532,15.6505427 60.9031746,15.6108033 60.8202403,15.6108033 C60.6975667,15.6108033 60.3934744,15.588342 60.047915,15.5071355 C59.742095,15.4466626 59.5192092,15.1823097 59.5192092,14.8782174 C59.5192092,14.532658 59.5192092,14.166365 59.5399427,13.8398114 L60.3537351,4.40431198 L60.4349416,4.40431198 C60.661283,4.95202363 62.9367916,9.83477795 63.1199381,10.1993431 C63.2236059,10.4032232 64.9704087,13.9210179 65.5008424,14.9179567 C65.8861411,15.6488149 65.9863533,15.8544227 66.1280327,15.8544227 C66.3111792,15.8544227 66.3751077,15.6695484 66.8018735,14.7728218 L71.7831123,4.20043193 L71.8435852,4.20043193 L72.8180627,14.6916153 C72.8595298,15.0579083 72.840524,15.4034677 72.7368562,15.4242012 C72.636644,15.4466626 72.5951769,15.4864019 72.5951769,15.5693362 C72.5951769,15.6695484 72.6988447,15.7317491 73.1636221,15.7714884 C73.9186694,15.8319613 76.1112437,15.8924342 76.560471,15.8924342 C76.8075459,15.8924342 76.9872368,15.8319613 76.9872368,15.7092877 C76.9872368,15.6280813 76.9267639,15.6090755 76.8248239,15.6090755 C76.6192161,15.6090755 76.0939658,15.6090755 75.504787,15.4242012 C74.6270661,15.1408425 74.4853868,14.0022243 74.4041803,13.2696384 L73.0495875,0.782849467 Z" id="path2434"></path>
        <path d="M79.8743856,10.8317168 C79.8743856,12.5042243 79.8743856,13.8812785 79.786268,14.6121367 C79.7171561,15.1183812 79.6307662,15.5002243 79.283479,15.5727918 C79.1245217,15.6073477 78.9154583,15.6401759 78.7599565,15.6401759 C78.6545609,15.6401759 78.6182772,15.6937376 78.6182772,15.7455715 C78.6182772,15.8509671 78.7063948,15.885523 78.8999081,15.885523 C79.1608055,15.885523 79.5616544,15.8665173 79.9106693,15.8492393 C80.2769623,15.8492393 80.5724156,15.8336891 80.6086993,15.8336891 C81.1132161,15.8336891 82.2812068,15.937357 84.9109139,15.937357 C85.5916659,15.937357 85.7316174,15.937357 85.8508354,15.4829463 C85.9389531,15.1183812 86.0789046,13.9331124 86.0789046,13.7914331 C86.0789046,13.6687595 86.0789046,13.5288079 85.9717812,13.5288079 C85.8871192,13.5288079 85.8508354,13.6031032 85.8180073,13.7914331 C85.6936059,14.5050132 85.4845425,14.8540282 85.0301319,15.0458137 C84.5791768,15.2375992 83.8103072,15.2375992 83.3593522,15.2375992 C81.6488331,15.2375992 81.3896636,15.0112578 81.3361019,13.8104388 C81.3205517,13.4441459 81.3361019,11.4208956 81.3361019,10.829989 L81.3361019,9.29570529 C81.3361019,9.22486561 81.3706578,9.1730317 81.4587755,9.1730317 C81.7559565,9.1730317 83.4785702,9.20931544 83.9502587,9.26114935 C84.6310108,9.33026123 84.7865125,9.62744231 84.8556244,9.87278948 C84.9247362,10.0974031 84.9247362,10.2701828 84.9247362,10.4464181 C84.9247362,10.5328079 84.9592922,10.6053754 85.0439542,10.6053754 C85.1666278,10.6053754 85.1666278,10.4135899 85.1666278,10.2719106 C85.1666278,10.1509648 85.2029116,9.50822432 85.2391953,9.15748153 C85.2893014,8.58212512 85.3774191,8.28494404 85.3774191,8.18300402 C85.3774191,8.0776084 85.3428631,8.04132466 85.2893014,8.04132466 C85.2219173,8.04132466 85.1510777,8.12771451 85.0266763,8.26939387 C84.8729023,8.44390136 84.629283,8.47672951 84.2094283,8.51474104 C83.8068516,8.55102478 81.6626555,8.55102478 81.4380419,8.55102478 C81.351652,8.55102478 81.3326463,8.49746307 81.3326463,8.37478948 L81.3326463,3.56287484 C81.3326463,3.44192905 81.3672022,3.38836734 81.4380419,3.38836734 C81.6315552,3.38836734 83.5286763,3.40391752 83.8258574,3.44020125 C84.7675067,3.54386907 84.9420142,3.75293251 85.0646878,4.03283562 C85.1528054,4.24189906 85.1683556,4.53735235 85.1683556,4.65829814 C85.1683556,4.79997749 85.2046394,4.88463954 85.310035,4.88463954 C85.3791469,4.88463954 85.4137028,4.78097172 85.4309808,4.69630967 C85.4638089,4.48724623 85.5000926,3.72010437 85.5190984,3.54386907 C85.5709323,3.05835812 85.65905,2.84929468 85.65905,2.72489329 C85.65905,2.63677565 85.6400442,2.56939156 85.5882103,2.56939156 C85.5000926,2.56939156 85.4309808,2.63677565 85.3445909,2.65923701 C85.2029116,2.69206515 84.9247362,2.72489329 84.5929992,2.74217126 C84.1938781,2.76117703 80.7227339,2.76117703 80.6035159,2.76117703 C80.5119427,2.76117703 79.4147916,2.70934312 78.6303718,2.70934312 C78.4403141,2.70934312 78.3504687,2.74389906 78.3504687,2.84929468 C78.3504687,2.91840656 78.4213083,2.9529625 78.492148,2.9529625 C78.6493775,2.9529625 78.9465586,2.97024047 79.0830546,3.00652421 C79.6601388,3.12747 79.7983625,3.40391752 79.8329185,3.99827968 C79.8692022,4.55635811 79.8692022,5.04359687 79.8692022,7.76487714 L79.8692022,10.8317168 L79.8743856,10.8317168 Z" id="path2436"></path>
        <path d="M91.6493222,7.76314935 C91.6493222,5.04359687 91.6493222,4.55635811 91.6856059,3.99655189 C91.7218896,3.38663955 91.8601134,3.09291406 92.3629023,3.00479641 C92.5754214,2.96851267 92.8190407,2.9512347 92.9399865,2.9512347 C93.0108262,2.9512347 93.0851215,2.91667876 93.0851215,2.84756688 C93.0851215,2.74044347 92.9935482,2.70761532 92.8017628,2.70761532 C92.2747847,2.70761532 91.0083095,2.75944923 90.9201918,2.75944923 C90.8320742,2.75944923 89.7314675,2.70761532 88.9487755,2.70761532 C88.7587178,2.70761532 88.6706001,2.74217126 88.6706001,2.84756688 C88.6706001,2.91667876 88.7414398,2.9512347 88.8122795,2.9512347 C88.9677812,2.9512347 89.2632345,2.96851267 89.4031861,3.00479641 C89.9802703,3.1257422 90.1202218,3.40218972 90.1513222,3.99655189 C90.1893337,4.55463032 90.1893337,5.04186907 90.1893337,7.76314935 L90.1893337,10.829989 C90.1893337,12.5024965 90.1893337,13.8795507 90.1029439,14.6104089 C90.033832,15.1166534 89.9439865,15.4984965 89.5932437,15.5727918 C89.437742,15.6056199 89.2269508,15.6384481 89.0697212,15.6384481 C88.9660534,15.6384481 88.9297697,15.6920098 88.9297697,15.7438437 C88.9297697,15.8492393 89.0178873,15.8837952 89.2096728,15.8837952 C89.4722979,15.8837952 89.8558689,15.8647895 90.2048839,15.8475115 C90.5521711,15.8475115 90.85108,15.8302335 90.918464,15.8302335 C91.9292253,15.8302335 93.0833937,15.9356292 95.5869715,15.9356292 C96.5113429,15.9356292 96.561449,15.8647895 96.6875782,15.4656684 C96.825802,14.9611516 96.9467478,13.9175623 96.9467478,13.7223212 C96.9467478,13.5270801 96.9329254,13.4614239 96.8448077,13.4614239 C96.7359565,13.4614239 96.7031284,13.5495415 96.6858504,13.6894931 C96.6357443,14.0195023 96.4629646,14.4549071 96.2331676,14.7330824 C95.8115851,15.239327 95.0478989,15.2583327 94.1235275,15.2583327 C92.7620234,15.2583327 92.3076128,15.1356591 92.0311653,14.8592116 C91.7167063,14.5430248 91.6458666,13.4285957 91.6458666,10.8680006 L91.6458666,7.76314935 L91.6493222,7.76314935 Z" id="path2438"></path>
        <path d="M101.853691,7.76314935 C101.853691,5.04359687 101.853691,4.55635811 101.889975,3.99655189 C101.926259,3.38663955 102.064482,3.09291406 102.532715,3.00479641 C102.745235,2.96851267 102.85063,2.9512347 102.969848,2.9512347 C103.042416,2.9512347 103.1098,2.91667876 103.1098,2.84756688 C103.1098,2.74044347 103.025138,2.70761532 102.833352,2.70761532 C102.306374,2.70761532 101.212679,2.75944923 101.129744,2.75944923 C101.038171,2.75944923 99.9392922,2.70761532 99.3656636,2.70761532 C99.1773337,2.70761532 99.0840327,2.74217126 99.0840327,2.84756688 C99.0840327,2.91667876 99.1531445,2.9512347 99.2274398,2.9512347 C99.34493,2.9512347 99.574727,2.96851267 99.7682403,3.02380218 C100.153539,3.11019203 100.328046,3.40391752 100.359147,3.99655189 C100.395431,4.55463032 100.395431,5.04186907 100.395431,7.76314935 L100.395431,10.829989 C100.395431,12.5024965 100.395431,13.8795507 100.309041,14.6104089 C100.241657,15.1166534 100.151811,15.4984965 99.8027962,15.5727918 C99.6455667,15.6056199 99.4365032,15.6384481 99.2775459,15.6384481 C99.1756059,15.6384481 99.1358666,15.6920098 99.1358666,15.7438437 C99.1358666,15.8492393 99.2274398,15.8837952 99.4157697,15.8837952 C99.9392922,15.8837952 101.038171,15.8319613 101.129744,15.8319613 C101.214406,15.8319613 102.308102,15.8837952 103.268757,15.8837952 C103.460542,15.8837952 103.546932,15.8319613 103.546932,15.7438437 C103.546932,15.6937376 103.514104,15.6384481 103.410436,15.6384481 C103.251479,15.6384481 102.869636,15.6038921 102.627744,15.5727918 C102.097311,15.4984965 101.997098,15.1166534 101.945264,14.6104089 C101.853691,13.8778229 101.853691,12.5007687 101.853691,10.829989 L101.853691,7.76314935 Z" id="path2440"></path>
        <path d="M108.194706,5.16627046 C108.754512,5.79173297 110.719018,7.98949075 112.743996,10.1682428 C114.592739,12.1534815 117.103228,14.7175323 117.293285,14.890312 C118.221112,15.8146834 118.42672,16.0064688 118.564944,16.0064688 C118.68589,16.0064688 118.723901,15.9183512 118.723901,14.7659106 L118.758457,4.55463032 C118.758457,3.50931313 118.825841,3.1257422 119.39947,3.00479641 C119.615444,2.9512347 119.732935,2.9512347 119.82278,2.9512347 C119.945454,2.9512347 120.012838,2.89767299 120.012838,2.83201671 C120.012838,2.72662109 119.888436,2.70934312 119.698379,2.70934312 C118.986526,2.70934312 118.409442,2.76117703 118.221112,2.76117703 C118.024143,2.76117703 117.184434,2.70934312 116.408653,2.70934312 C116.192679,2.70934312 116.054455,2.72834889 116.054455,2.83201671 C116.054455,2.89767299 116.076916,2.9512347 116.192679,2.9512347 C116.334358,2.9512347 116.735207,2.96851267 117.04621,3.03935235 C117.587011,3.17757611 117.707957,3.56287484 117.72869,4.69630967 L117.920476,13.5495415 C117.360669,12.9741851 115.460093,10.8489948 113.735751,9.0019798 C111.052482,6.12519779 108.453876,3.31925546 108.194706,3.02380218 C108.018471,2.84756688 107.726473,2.46399595 107.584794,2.46399595 C107.444842,2.46399595 107.394736,2.65750921 107.394736,3.33653343 L107.374003,13.3214723 C107.374003,14.9075899 107.285885,15.4155623 106.85048,15.5347803 C106.591311,15.6228979 106.276852,15.6401759 106.140356,15.6401759 C106.05051,15.6401759 106.000404,15.6764596 106.000404,15.7455715 C106.000404,15.8665173 106.1058,15.885523 106.276852,15.885523 C107.062999,15.885523 107.79213,15.8336891 107.951087,15.8336891 C108.110044,15.8336891 108.806346,15.885523 109.796374,15.885523 C110.008893,15.885523 110.107378,15.8492393 110.107378,15.7455715 C110.107378,15.6764596 110.060727,15.6401759 109.972609,15.6401759 C109.817108,15.6401759 109.431809,15.6228979 109.098344,15.5347803 C108.630111,15.3948287 108.453876,14.9404181 108.41932,13.5132578 L108.194706,5.16627046 Z" id="path2442"></path>
        <path d="M123.713779,10.8334446 C123.713779,12.5042243 123.713779,13.8812785 123.622206,14.6138645 C123.553094,15.120109 123.466704,15.5019521 123.115961,15.5745196 C122.960459,15.6090755 122.751396,15.6419037 122.595894,15.6419037 C122.487043,15.6419037 122.454215,15.6954654 122.454215,15.7472993 C122.454215,15.8526949 122.542333,15.8872508 122.734118,15.8872508 C123.25764,15.8872508 124.354792,15.8354169 124.437726,15.8354169 C124.617417,15.8354169 126.809991,16.0444804 128.307991,16.0444804 C131.271163,16.0444804 132.84173,14.8229279 133.589867,14.0402358 C134.562616,13.0121966 135.473165,11.3206834 135.473165,9.12465338 C135.473165,7.05129698 134.652462,5.60513089 133.781652,4.69803747 C131.706568,2.55556919 128.515327,2.71107092 126.796169,2.71107092 C125.750852,2.71107092 124.6537,2.76290483 124.437726,2.76290483 C124.353064,2.76290483 123.255913,2.71107092 122.468037,2.71107092 C122.281435,2.71107092 122.196773,2.74562686 122.196773,2.85102248 C122.196773,2.92013436 122.264157,2.9546903 122.334997,2.9546903 C122.487043,2.9546903 122.784224,2.97196827 122.925903,3.008252 C123.499532,3.13092559 123.637756,3.40564531 123.675767,4.00000748 C123.712051,4.55808591 123.712051,5.04532467 123.712051,7.76660494 L123.712051,10.8334446 L123.713779,10.8334446 Z M125.175495,7.48324623 C125.175495,6.14074796 125.175495,4.36457265 125.192773,3.77366607 C125.192773,3.58015281 125.242879,3.49376296 125.405292,3.42292328 C125.54006,3.3538114 126.184529,3.30197749 126.535271,3.30197749 C128.6069,3.30197749 130.595594,3.54559687 132.235274,5.27166607 C132.947126,6.02152997 133.906053,7.45214589 133.906053,9.66545384 C133.906053,11.2671217 133.418815,12.941357 132.515177,13.8294446 C131.48541,14.8574838 129.98741,15.4501182 128.368464,15.4501182 C126.310658,15.4501182 125.628178,15.0838252 125.405292,14.7520882 C125.260157,14.5620305 125.225601,13.8622728 125.211779,13.4268679 C125.192773,13.0968587 125.175495,11.4934631 125.175495,9.64472028 L125.175495,7.48324623 Z" id="path2444"></path>
        <path d="M137.543066,13.9676684 C137.228607,14.8384781 136.88132,15.5002243 136.077894,15.6056199 C135.93967,15.6211701 135.694323,15.6401759 135.575105,15.6401759 C135.481804,15.6401759 135.416148,15.6764596 135.416148,15.7455715 C135.416148,15.8509671 135.521544,15.885523 135.749613,15.885523 C136.570316,15.885523 137.52406,15.8336891 137.717574,15.8336891 C137.905903,15.8336891 138.659223,15.885523 139.07735,15.885523 C139.232852,15.885523 139.336519,15.8492393 139.336519,15.7455715 C139.336519,15.6764596 139.286413,15.6401759 139.160284,15.6401759 L138.987504,15.6401759 C138.686868,15.6401759 138.322303,15.4829463 138.322303,15.1339313 C138.322303,14.8194723 138.41042,14.4030732 138.565922,13.9676684 L139.611239,10.8818229 C139.647523,10.7937053 139.695901,10.7435992 139.79093,10.7435992 L143.536794,10.7435992 C143.621456,10.7435992 143.65774,10.7798829 143.692296,10.8489948 L145.312969,15.1339313 C145.42182,15.4155623 145.312969,15.5727918 145.211029,15.6056199 C145.140189,15.6211701 145.086628,15.655726 145.086628,15.7265657 C145.086628,15.8319613 145.281869,15.8319613 145.61015,15.8475115 C146.814425,15.8837952 148.084356,15.8837952 148.346981,15.8837952 C148.538766,15.8837952 148.697724,15.8475115 148.697724,15.7438437 C148.697724,15.655726 148.626884,15.6384481 148.521488,15.6384481 C148.345253,15.6384481 148.082628,15.6194423 147.820003,15.5330525 C147.455437,15.4276568 146.952649,15.1494815 146.322003,13.5996476 C145.262863,10.949207 142.526033,3.75120471 142.26168,3.08945846 C142.056072,2.548658 141.988688,2.46226815 141.879837,2.46226815 C141.774441,2.46226815 141.703601,2.56939156 141.494538,3.14302017 L137.543066,13.9676684 Z M139.982715,10.1146811 C139.932609,10.1146811 139.894598,10.0801251 139.932609,9.99373527 L141.468621,5.28721625 C141.549827,5.0280467 141.637945,5.0280467 141.72779,5.28721625 L143.381292,9.99373527 C143.39857,10.0628472 143.39857,10.1146811 143.313908,10.1146811 L139.982715,10.1146811 Z" id="path2446"></path>
    </g>
</svg>
