<?xml version="1.0" encoding="UTF-8"?>
<svg width="180px" height="41px" viewBox="0 0 180 41" version="1.1" xmlns="http://www.w3.org/2000/svg" xmlns:xlink="http://www.w3.org/1999/xlink">
    <title>Educause</title>
    <desc>The Educause logo</desc>
    <g id="educause-logo">
        <rect id="XMLID_36_" fill="#A41F35" x="0" y="0" width="179.414634" height="40.097561"></rect>
        <path d="M156.585366,26.0487805 L166.390244,26.0487805 L166.390244,23.5609756 L159.365854,23.5609756 L159.365854,20.9268293 L165.365854,20.9268293 L165.365854,18.4390244 L159.365854,18.4390244 L159.365854,15.804878 L166.243902,15.804878 L166.243902,13.3170732 L156.585366,13.3170732 L156.585366,26.0487805 Z M142.390244,26.3414634 C145.170732,26.3414634 147.073171,24.8780488 147.073171,22.3902439 C147.073171,20.195122 145.609756,19.1707317 142.97561,18.5853659 C140.780488,18 140.195122,17.7073171 140.195122,16.8292683 C140.195122,16.2439024 140.780488,15.6585366 141.804878,15.6585366 C142.829268,15.6585366 144,16.097561 145.170732,16.9756098 L146.634146,14.7804878 C145.317073,13.7560976 143.707317,13.1707317 141.804878,13.1707317 C139.170732,13.1707317 137.268293,14.7804878 137.268293,16.9756098 C137.268293,19.4634146 138.878049,20.195122 141.512195,20.9268293 C143.707317,21.5121951 144.146341,21.804878 144.146341,22.5365854 C144.146341,23.2682927 143.414634,23.7073171 142.243902,23.7073171 C140.780488,23.7073171 139.609756,23.1219512 138.439024,22.097561 L136.829268,24.1463415 C138.439024,25.6097561 140.341463,26.3414634 142.390244,26.3414634 Z M122.195122,26.3414634 C125.707317,26.3414634 127.902439,24.4390244 127.902439,20.4878049 L127.902439,13.1707317 L125.121951,13.1707317 L125.121951,20.4878049 C125.121951,22.5365854 124.097561,23.5609756 122.341463,23.5609756 C120.585366,23.5609756 119.560976,22.5365854 119.560976,20.3414634 L119.560976,13.0243902 L116.780488,13.0243902 L116.780488,20.3414634 C116.634146,24.4390244 118.682927,26.3414634 122.195122,26.3414634 Z M99.6585366,20.7804878 L101.414634,16.6829268 L103.170732,20.7804878 L99.6585366,20.7804878 Z M94.6829268,26.0487805 L97.6097561,26.0487805 L98.7804878,23.1219512 L104.195122,23.1219512 L105.365854,26.0487805 L108.292683,26.0487805 L102.731707,13.1707317 L100.097561,13.1707317 L94.6829268,26.0487805 Z M81.2195122,26.3414634 C83.7073171,26.3414634 85.1707317,25.4634146 86.4878049,24 L84.7317073,22.2439024 C83.7073171,23.1219512 82.8292683,23.7073171 81.3658537,23.7073171 C79.0243902,23.7073171 77.5609756,21.9512195 77.5609756,19.6097561 C77.5609756,17.4146341 79.1707317,15.6585366 81.2195122,15.6585366 C82.5365854,15.6585366 83.5609756,16.2439024 84.4390244,17.1219512 L86.195122,15.0731707 C85.0243902,13.902439 83.5609756,13.0243902 81.0731707,13.0243902 C77.1219512,13.0243902 74.3414634,15.9512195 74.3414634,19.6097561 C74.6341463,23.4146341 77.4146341,26.3414634 81.2195122,26.3414634 Z M59.5609756,26.3414634 C63.0731707,26.3414634 65.2682927,24.4390244 65.2682927,20.4878049 L65.2682927,13.1707317 L62.4878049,13.1707317 L62.4878049,20.4878049 C62.4878049,22.5365854 61.4634146,23.5609756 59.7073171,23.5609756 C57.9512195,23.5609756 56.9268293,22.5365854 56.9268293,20.3414634 L56.9268293,13.0243902 L54.1463415,13.0243902 L54.1463415,20.3414634 C54,24.4390244 56.195122,26.3414634 59.5609756,26.3414634 Z M35.7073171,23.5609756 L35.7073171,15.804878 L37.902439,15.804878 C40.2439024,15.804878 41.7073171,17.4146341 41.7073171,19.6097561 C41.7073171,21.9512195 40.097561,23.4146341 37.902439,23.4146341 L35.7073171,23.4146341 L35.7073171,23.5609756 Z M32.9268293,26.0487805 L37.902439,26.0487805 C42,26.0487805 44.7804878,23.2682927 44.7804878,19.6097561 C44.7804878,15.9512195 42,13.1707317 37.902439,13.1707317 L32.9268293,13.1707317 L32.9268293,26.0487805 Z M13.6097561,26.0487805 L23.4146341,26.0487805 L23.4146341,23.5609756 L16.3902439,23.5609756 L16.3902439,20.9268293 L22.3902439,20.9268293 L22.3902439,18.4390244 L16.3902439,18.4390244 L16.3902439,15.804878 L23.2682927,15.804878 L23.2682927,13.3170732 L13.6097561,13.3170732 L13.6097561,26.0487805 Z" id="XMLID_25_" fill="#FFFFFF"></path>
    </g>
</svg>
