<?xml version="1.0" encoding="UTF-8"?>
<svg width="180px" height="51px" viewBox="0 0 180 51" version="1.1" xmlns="http://www.w3.org/2000/svg" xmlns:xlink="http://www.w3.org/1999/xlink">
    <title>The Robert Wood Johnson Foundation (RWJF)</title>
    <desc>The RWJF logo</desc>
    <g id="rwjf-logo">
        <g id="Group" transform="translate(0.000000, 37.718277)" fill="#000000">
            <path d="M0,0.712456345 C0.419091967,0.733410943 0.817229336,0.77532014 1.2363213,0.77532014 C1.57159488,0.77532014 3.26891735,0.712456345 3.66705471,0.712456345 C4.12805588,0.712456345 5.112922,0.712456345 5.74155995,1.57159488 C6.03492433,1.96973225 6.13969732,2.47264261 6.13969732,2.91268917 C6.13969732,3.62514552 5.88824214,4.14901048 5.63678696,4.50523865 C5.25960419,4.98719441 4.84051222,5.1757858 4.37951106,5.40628638 L6.4330617,8.17229336 C7.35506403,9.36670547 7.45983702,9.51338766 8.29802095,9.57625146 L8.29802095,10.0582072 C8.04656577,10.0582072 7.04074505,10.016298 6.83119907,9.99534342 C6.26542491,9.95343423 6.18160652,9.80675204 5.80442375,9.28288708 L3.33178114,5.67869616 C2.87077998,5.72060536 2.72409779,5.72060536 2.32596042,5.72060536 L2.32596042,7.27124563 C2.34691502,8.54947614 2.34691502,8.73806752 2.36786962,8.90570431 C2.43073341,9.45052386 2.72409779,9.55529686 3.47846333,9.55529686 L3.47846333,10.0582072 C2.87077998,10.016298 2.28405122,9.99534342 1.67636787,9.99534342 C1.13154831,9.99534342 0.565774156,10.016298 0.0209545984,10.0582072 L0.0209545984,9.55529686 C0.502910361,9.55529686 0.90104773,9.53434226 1.04772992,9.24097788 C1.13154831,9.09429569 1.13154831,9.07334109 1.13154831,7.52270081 L1.13154831,3.8556461 C1.13154831,2.99650757 1.11059371,2.03259604 1.06868452,1.76018626 C0.984866123,1.2572759 0.565774156,1.2572759 0,1.2572759 L0,0.712456345 Z M2.30500582,5.1757858 C2.64027939,5.1967404 3.39464494,5.21769499 4.04423749,4.86146682 C4.69383003,4.52619325 5.00814901,3.8975553 5.00814901,3.12223516 C5.00814901,2.34691502 4.61001164,1.82305006 4.25378347,1.61350407 C3.68800931,1.2363213 2.91268917,1.2572759 2.28405122,1.2782305 L2.28405122,5.1757858 L2.30500582,5.1757858 Z" id="Shape"></path>
            <path d="M14.1024447,7.12456345 C14.1024447,8.82188591 12.8661234,10.1839348 11.0640279,10.1839348 C9.07334109,10.1839348 8.06752037,8.67520373 8.06752037,7.14551804 C8.06752037,5.28055879 9.42956927,4.06519208 11.0640279,4.04423749 C13.0756694,3.98137369 14.1024447,5.55296857 14.1024447,7.12456345 Z M9.15715949,6.85215367 C9.15715949,7.98370198 9.70197905,9.63911525 11.1897555,9.63911525 C12.3841676,9.63911525 13.0128056,8.57043073 13.0128056,7.27124563 C13.0128056,6.16065192 12.4051222,4.48428405 10.9173458,4.54714785 C9.89057043,4.61001164 9.15715949,5.53201397 9.15715949,6.85215367 Z" id="Shape"></path>
            <path d="M14.0605355,0.817229336 C14.814901,0.565774156 14.9825378,0.481955763 15.6740396,0.0628637951 L15.9254948,0.188591385 C15.8416764,0.77532014 15.8207218,1.2782305 15.7997672,2.80791618 L15.7997672,4.86146682 C16.3655413,4.46332945 16.9522701,4.06519208 17.790454,4.06519208 C19.2363213,4.06519208 20.3050058,5.25960419 20.3050058,6.89406286 C20.3050058,8.71711292 19.0477299,10.0791618 17.1827707,10.0791618 L17.0360885,10.0791618 C16.6798603,10.0582072 16.3236321,9.99534342 15.9464494,9.95343423 C15.8207218,9.93247963 15.7159488,9.93247963 15.5902212,9.93247963 C15.2968568,9.93247963 15.0873108,9.97438882 14.7939464,10.0372526 L14.814901,7.94179278 L14.814901,2.68218859 C14.814901,1.36204889 14.814901,1.17345751 14.0605355,1.17345751 L14.0605355,0.817229336 Z M15.8207218,7.98370198 C15.8416764,8.25611176 15.8416764,8.50756694 15.967404,8.77997672 C16.2607683,9.40861467 16.9313155,9.53434226 17.3084983,9.53434226 C18.6495925,9.53434226 19.2572759,8.36088475 19.2572759,7.18742724 C19.2572759,5.65774156 18.2933644,4.88242142 17.2037253,4.88242142 C16.5750873,4.88242142 16.1140861,5.1338766 15.8207218,5.32246799 L15.8207218,7.98370198 Z" id="Shape"></path>
            <path d="M21.9604191,6.4330617 C21.9394645,6.60069849 21.9394645,6.66356228 21.9394645,6.83119907 C21.9394645,7.29220023 22.0023283,7.64842841 22.1699651,8.02561118 C22.5052386,8.75902212 23.217695,9.28288708 24.0977881,9.28288708 C24.8521537,9.28288708 25.2712456,8.9895227 25.5017462,8.82188591 L25.7322468,9.11525029 C25.5227008,9.34575087 25.3341094,9.51338766 24.9778813,9.72293364 C24.4959255,9.99534342 23.9720605,10.1001164 23.5529686,10.1001164 C22.1071013,10.1001164 21.0174622,8.88474971 21.0174622,7.25029104 C21.0174622,5.34342258 22.2328289,4.08614668 23.74156,4.08614668 C24.8311991,4.08614668 25.6274738,4.75669383 25.6274738,5.76251455 C25.6274738,6.3911525 25.3969732,6.4121071 24.9988359,6.4121071 L21.9604191,6.4121071 L21.9604191,6.4330617 Z M24.3282887,5.90919674 C24.5168801,5.88824214 24.6635623,5.84633295 24.6635623,5.55296857 C24.6635623,5.1548312 24.4121071,4.63096624 23.5948778,4.63096624 C22.8614668,4.63096624 22.2956927,5.0919674 22.0442375,5.90919674 L24.3282887,5.90919674 Z" id="Shape"></path>
            <path d="M26.4027939,4.71478463 C27.1152503,4.44237485 27.3038417,4.35855646 27.9743888,3.98137369 L28.1420256,4.06519208 L28.1420256,5.34342258 C28.330617,5.00814901 28.8125728,4.14901048 29.8183935,4.14901048 C29.9022119,4.14901048 30.3213038,4.14901048 30.3213038,4.52619325 C30.3213038,4.61001164 30.2165308,5.30151339 29.9231665,5.30151339 C29.8393481,5.30151339 29.6088475,5.1548312 29.1688009,5.1548312 C28.2887078,5.1548312 28.225844,5.93015134 28.1839348,6.18160652 C28.121071,6.64260768 28.121071,8.17229336 28.121071,8.69615832 C28.121071,9.40861467 28.1420256,9.68102445 29.0430733,9.63911525 L29.0430733,10.0791618 C28.540163,10.0582072 28.0582072,10.016298 27.5762515,10.016298 C27.1152503,10.016298 26.6961583,10.0582072 26.2142026,10.0791618 L26.2142026,9.63911525 C26.8009313,9.61816065 27.0314319,9.61816065 27.0942957,9.24097788 C27.1152503,9.09429569 27.1362049,8.59138533 27.1362049,8.27706636 L27.1362049,6.3911525 C27.0942957,5.25960419 27.0942957,5.1757858 26.3818393,5.1548312 L26.3818393,4.71478463 L26.4027939,4.71478463 Z" id="Shape"></path>
            <path d="M30.9499418,4.61001164 C31.8928987,3.93946449 32.1443539,3.31082654 32.3538999,2.70314319 L32.7520373,2.70314319 L32.7310827,4.44237485 L34.5122235,4.44237485 L34.3026775,5.02910361 L32.6891735,5.02910361 L32.6472643,7.87892899 C32.6472643,8.48661234 32.6472643,8.80093132 32.7939464,9.07334109 C33.0034924,9.40861467 33.3806752,9.47147846 33.653085,9.47147846 C33.9254948,9.47147846 34.1140861,9.40861467 34.3655413,9.30384168 L34.4912689,9.68102445 C33.8416764,9.95343423 33.5064028,10.0791618 32.9825378,10.0791618 C32.6891735,10.0791618 32.2700815,10.0372526 31.9557625,9.74388824 C31.6204889,9.40861467 31.6204889,9.0523865 31.6204889,8.25611176 L31.6623981,5.00814901 L30.8661234,5.00814901 L30.9499418,4.61001164 Z" id="Shape"></path>
            <path d="M37.5715949,0.712456345 C38.0535506,0.733410943 38.4935972,0.77532014 38.9336438,0.77532014 C39.4365541,0.77532014 39.9813737,0.754365541 40.5681024,0.712456345 L40.5681024,1.19441211 C40.2328289,1.19441211 39.8975553,1.2782305 39.8975553,1.63445867 C39.8975553,1.69732247 39.9185099,1.76018626 39.9394645,1.82305006 C39.9813737,1.96973225 40.2537835,2.68218859 40.3376019,2.89173458 L42.4121071,8.08847497 L43.6484284,5.1967404 L42.3492433,2.24214203 C41.8882421,1.3410943 41.8253783,1.21536671 41.1967404,1.17345751 L41.1967404,0.691501746 C41.6577416,0.712456345 42.0768335,0.754365541 42.5378347,0.754365541 C43.0197905,0.754365541 43.5017462,0.712456345 43.983702,0.691501746 L43.983702,1.17345751 C43.7322468,1.17345751 43.3969732,1.19441211 43.3969732,1.59254948 C43.3969732,1.76018626 43.459837,1.94877765 43.5436554,2.13736903 L44.2770664,3.8137369 L44.9476135,2.26309662 C45.0733411,1.99068685 45.1571595,1.80209546 45.1571595,1.61350407 C45.1571595,1.19441211 44.7799767,1.17345751 44.5704307,1.17345751 L44.5704307,0.691501746 C44.9895227,0.712456345 45.4086147,0.754365541 45.8277066,0.754365541 C46.2048894,0.754365541 46.540163,0.712456345 46.9802095,0.691501746 L46.9802095,1.17345751 C46.330617,1.15250291 46.1001164,1.2991851 45.7648428,2.07450524 L44.6332945,4.58905704 L46.1629802,8.04656577 L48.3213038,2.87077998 C48.572759,2.22118743 48.677532,1.99068685 48.677532,1.71827707 C48.677532,1.21536671 48.1955763,1.17345751 47.8183935,1.17345751 L47.8183935,0.691501746 C48.2793946,0.712456345 48.7403958,0.754365541 49.201397,0.754365541 C49.6623981,0.754365541 50.1233993,0.712456345 50.5844005,0.691501746 L50.5844005,1.15250291 C49.8509895,1.19441211 49.7043073,1.40395809 49.201397,2.49359721 L46.6658906,8.33993015 C46.3725262,9.07334109 46.225844,9.38766007 45.9743888,10.0791618 L45.806752,10.0791618 L43.983702,5.95110594 L42.1606519,10.0791618 L41.9930151,10.0791618 L38.8288708,2.28405122 C38.3888242,1.3410943 38.242142,1.17345751 37.5925495,1.13154831 L37.5925495,0.712456345 L37.5715949,0.712456345 Z" id="Shape"></path>
            <path d="M54.7962747,7.12456345 C54.7962747,8.82188591 53.5599534,10.1839348 51.757858,10.1839348 C49.7671711,10.1839348 48.7613504,8.67520373 48.7613504,7.14551804 C48.7613504,5.28055879 50.1233993,4.06519208 51.757858,4.04423749 C53.790454,3.98137369 54.7962747,5.55296857 54.7962747,7.12456345 Z M49.8509895,6.85215367 C49.8509895,7.98370198 50.3958091,9.63911525 51.8835856,9.63911525 C53.0779977,9.63911525 53.7066356,8.57043073 53.7066356,7.27124563 C53.7066356,6.16065192 53.0989523,4.48428405 51.6111758,4.54714785 C50.6053551,4.61001164 49.8509895,5.53201397 49.8509895,6.85215367 Z" id="Shape"></path>
            <path d="M61.56461,7.12456345 C61.56461,8.82188591 60.3282887,10.1839348 58.5261932,10.1839348 C56.5355064,10.1839348 55.5296857,8.67520373 55.5296857,7.14551804 C55.5296857,5.28055879 56.8917346,4.06519208 58.5261932,4.04423749 C60.5378347,3.98137369 61.56461,5.55296857 61.56461,7.12456345 Z M56.5983702,6.85215367 C56.5983702,7.98370198 57.1431898,9.63911525 58.6309662,9.63911525 C59.8253783,9.63911525 60.4540163,8.57043073 60.4540163,7.27124563 C60.4540163,6.16065192 59.8463329,4.48428405 58.3585565,4.54714785 C57.3527357,4.61001164 56.5983702,5.53201397 56.5983702,6.85215367 Z" id="Shape"></path>
            <path d="M65.8393481,0.77532014 C66.5098952,0.523864959 66.6984866,0.440046566 67.4318976,0.0209545984 L67.6623981,0.12572759 C67.6204889,0.963911525 67.5995343,1.11059371 67.5785797,1.96973225 L67.5785797,7.83701979 C67.5785797,9.17811409 67.5995343,9.38766007 68.3538999,9.36670547 L68.3538999,9.80675204 C67.8300349,9.82770664 67.3271246,9.91152503 66.6984866,10.1001164 L66.4889406,9.89057043 C66.5098952,9.59720605 66.5098952,9.51338766 66.5518044,9.17811409 C66.0908033,9.53434226 65.4202561,10.0791618 64.5611176,10.0791618 C63.2409779,10.0791618 62.2770664,8.73806752 62.2770664,7.16647264 C62.2770664,5.38533178 63.5133877,4.06519208 65.1478463,4.06519208 C65.8812573,4.06519208 66.363213,4.31664726 66.5937136,4.44237485 L66.5937136,1.82305006 C66.572759,1.3201397 66.5518044,1.15250291 65.8812573,1.15250291 L65.8812573,0.77532014 L65.8393481,0.77532014 Z M66.572759,6.49592549 C66.5518044,5.72060536 66.5308498,5.30151339 66.1327125,4.94528522 C65.8183935,4.65192084 65.4202561,4.58905704 65.0430733,4.58905704 C64.016298,4.58905704 63.2409779,5.44819558 63.2409779,6.89406286 C63.2409779,8.44470314 64.121071,9.30384168 65.1059371,9.30384168 C65.7974389,9.30384168 66.25844,8.88474971 66.5518044,8.61233993 L66.5518044,6.49592549 L66.572759,6.49592549 Z" id="Shape"></path>
            <path d="M72.7124563,0.733410943 C73.3201397,0.77532014 73.8020955,0.796274738 74.3678696,0.796274738 C74.975553,0.796274738 75.5622817,0.77532014 76.1490105,0.733410943 L76.1490105,1.19441211 C75.8346915,1.19441211 75.3946449,1.19441211 75.2270081,1.48777648 C75.1012806,1.67636787 75.1012806,2.05355064 75.1012806,2.93364377 L75.1012806,6.78928987 C75.1012806,9.51338766 75.1012806,9.84866123 74.6402794,10.7287544 C74.137369,11.6507567 72.8172293,13.0547148 71.7694994,13.0547148 C71.6228172,13.0547148 71.0360885,12.991851 71.0360885,12.7613504 C71.0360885,12.677532 71.0570431,12.6356228 71.2665891,12.3003492 C71.3923166,12.1327125 71.5389988,11.8812573 71.6647264,11.8812573 C71.7066356,11.8812573 71.7694994,11.9022119 71.8114086,11.9231665 C71.9580908,11.9860303 72.1676368,12.0488941 72.4400466,12.0488941 C72.7753201,12.0488941 73.0896391,11.9231665 73.3830035,11.5878929 C73.9068685,10.9592549 73.9278231,10.1839348 73.9487776,7.774156 L73.9487776,5.112922 C73.9487776,4.50523865 73.9278231,3.9185099 73.9278231,3.10128056 C73.9068685,2.09545984 73.9068685,2.03259604 73.9068685,1.86495925 C73.8649593,1.2782305 73.5715949,1.19441211 72.7334109,1.17345751 L72.7334109,0.733410943 L72.7124563,0.733410943 Z" id="Shape"></path>
            <path d="M82.225844,7.12456345 C82.225844,8.82188591 80.9895227,10.1839348 79.1874272,10.1839348 C77.1967404,10.1839348 76.1699651,8.67520373 76.1699651,7.14551804 C76.1699651,5.28055879 77.5529686,4.06519208 79.1874272,4.04423749 C81.1990687,3.98137369 82.225844,5.55296857 82.225844,7.12456345 Z M77.2805588,6.85215367 C77.2805588,7.98370198 77.8253783,9.63911525 79.3131548,9.63911525 C80.5075669,9.63911525 81.1362049,8.57043073 81.1362049,7.27124563 C81.1362049,6.16065192 80.5285215,4.48428405 79.0407451,4.54714785 C78.0139697,4.61001164 77.2805588,5.53201397 77.2805588,6.85215367 Z" id="Shape"></path>
            <path d="M82.6239814,0.838183935 C83.3154831,0.607683353 83.4831199,0.523864959 84.1955763,0.0838183935 L84.4470314,0.209545984 C84.4051222,0.922002328 84.363213,1.08963912 84.363213,2.47264261 L84.363213,5.1338766 C85.5576251,4.33760186 85.9767171,4.16996508 86.3958091,4.16996508 C86.9406286,4.16996508 87.4225844,4.35855646 87.7369034,4.67287544 C88.1140861,5.07101281 88.1769499,5.59487776 88.1769499,6.26542491 C88.1769499,6.55878929 88.1559953,7.98370198 88.1559953,8.31897555 L88.1559953,8.9895227 C88.1559953,9.59720605 88.3864959,9.59720605 88.9941793,9.61816065 L88.9941793,10.0582072 C88.5331781,10.0372526 88.0721769,9.99534342 87.6111758,9.99534342 C87.1501746,9.99534342 86.7520373,10.0372526 86.2281723,10.0582072 L86.2281723,9.61816065 C86.8777648,9.59720605 87.0873108,9.59720605 87.1082654,9.07334109 C87.12922,8.92665891 87.1711292,8.06752037 87.1711292,7.20838184 C87.1711292,6.70547148 87.1711292,6.05587893 87.0873108,5.69965076 C87.024447,5.53201397 86.8568102,4.90337602 85.9976717,4.90337602 C85.4947614,4.90337602 85.0337602,5.0919674 84.3841676,5.61583236 L84.3841676,8.67520373 C84.3841676,9.51338766 84.4051222,9.59720605 85.2642608,9.61816065 L85.2642608,10.0582072 C84.8032596,10.0372526 84.3422584,9.99534342 83.8603027,9.99534342 C83.3993015,9.99534342 82.9173458,10.016298 82.4563446,10.0582072 L82.4563446,9.61816065 C82.9383003,9.59720605 83.1268917,9.59720605 83.2735739,9.42956927 C83.3783469,9.30384168 83.3783469,9.09429569 83.3993015,8.44470314 L83.3993015,2.34691502 C83.3993015,1.38300349 83.3783469,1.21536671 82.6658906,1.21536671 L82.6658906,0.838183935 L82.6239814,0.838183935 Z" id="Shape"></path>
            <path d="M89.4342258,4.69383003 C90.104773,4.44237485 90.2724098,4.37951106 91.0058207,3.93946449 L91.2572759,4.06519208 C91.2153667,4.48428405 91.2153667,4.58905704 91.2153667,5.0919674 C92.6193248,4.12805588 92.975553,4.10710128 93.3108265,4.10710128 C93.6041909,4.10710128 93.9813737,4.16996508 94.3166473,4.37951106 C95.008149,4.81955763 95.0291036,5.49010477 95.0291036,6.32828871 L95.0291036,8.92665891 C95.0291036,9.53434226 95.1967404,9.55529686 95.8882421,9.59720605 L95.8882421,10.0582072 C95.427241,10.016298 94.9662398,9.99534342 94.5052386,9.99534342 C94.0442375,9.99534342 93.5832363,10.016298 93.1222352,10.0582072 L93.1222352,9.59720605 C94.0023283,9.57625146 94.0023283,9.51338766 94.0023283,8.46565774 L94.0023283,6.4330617 C94.0023283,5.82537835 93.9813737,4.81955763 92.8498254,4.81955763 C92.0745052,4.81955763 91.4877765,5.32246799 91.1944121,5.55296857 L91.2153667,8.75902212 C91.2363213,9.49243306 91.2572759,9.57625146 92.0954598,9.57625146 L92.0954598,10.0372526 C91.6344587,9.99534342 91.1525029,9.97438882 90.6915017,9.97438882 C90.2305006,9.97438882 89.7485448,9.99534342 89.2875437,10.0372526 L89.2875437,9.57625146 C89.7485448,9.57625146 89.9371362,9.55529686 90.0628638,9.40861467 C90.1885914,9.28288708 90.1885914,9.22002328 90.1885914,8.52852154 L90.1885914,6.76833527 C90.1676368,5.1967404 90.1676368,5.05005821 89.4132712,5.07101281 L89.4132712,4.69383003 L89.4342258,4.69383003 Z" id="Shape"></path>
            <path d="M96.7264261,8.29802095 C96.8102445,8.63329453 96.8521537,8.84284051 96.9988359,9.07334109 C97.3131548,9.61816065 97.8370198,9.61816065 97.9417928,9.61816065 C98.4866123,9.61816065 98.9895227,9.30384168 98.9895227,8.71711292 C98.9895227,8.21420256 98.7380675,8.02561118 97.7532014,7.37601863 C97.0826542,6.93597206 96.5168801,6.53783469 96.5168801,5.65774156 C96.5168801,4.58905704 97.355064,4.02328289 98.2351572,4.02328289 C98.7799767,4.02328289 99.3038417,4.19091967 99.5972061,4.27473807 L99.7229336,5.46915017 L99.3876601,5.51105937 C99.2619325,5.1548312 99.0523865,4.46332945 98.298021,4.46332945 C97.7951106,4.46332945 97.4388824,4.79860303 97.4388824,5.28055879 C97.4388824,5.82537835 97.8998836,6.11874272 98.3608847,6.4121071 C99.3247963,7.01979045 99.911525,7.39697322 99.911525,8.33993015 C99.911525,9.47147846 98.9895227,10.0582072 98.0046566,10.0582072 C97.3760186,10.0582072 96.8521537,9.86961583 96.4959255,9.74388824 L96.3073341,8.29802095 L96.7264261,8.29802095 Z" id="Shape"></path>
            <path d="M106.67986,7.12456345 C106.67986,8.82188591 105.443539,10.1839348 103.641444,10.1839348 C101.650757,10.1839348 100.623981,8.67520373 100.623981,7.14551804 C100.623981,5.28055879 102.006985,4.06519208 103.641444,4.04423749 C105.67404,3.98137369 106.67986,5.55296857 106.67986,7.12456345 Z M101.734575,6.85215367 C101.734575,7.98370198 102.279395,9.63911525 103.767171,9.63911525 C104.961583,9.63911525 105.590221,8.57043073 105.590221,7.27124563 C105.590221,6.16065192 104.982538,4.48428405 103.494761,4.54714785 C102.467986,4.61001164 101.734575,5.53201397 101.734575,6.85215367 Z" id="Shape"></path>
            <path d="M106.994179,4.69383003 C107.664726,4.44237485 107.832363,4.37951106 108.565774,3.93946449 L108.817229,4.06519208 C108.77532,4.48428405 108.77532,4.58905704 108.77532,5.0919674 C110.179278,4.12805588 110.535506,4.10710128 110.87078,4.10710128 C111.164144,4.10710128 111.541327,4.16996508 111.876601,4.37951106 C112.568102,4.81955763 112.589057,5.49010477 112.589057,6.32828871 L112.589057,8.92665891 C112.589057,9.53434226 112.756694,9.55529686 113.448196,9.59720605 L113.448196,10.0582072 C112.987194,10.016298 112.526193,9.99534342 112.065192,9.99534342 C111.604191,9.99534342 111.14319,10.016298 110.682189,10.0582072 L110.682189,9.59720605 C111.562282,9.57625146 111.562282,9.51338766 111.562282,8.46565774 L111.562282,6.4330617 C111.562282,5.82537835 111.541327,4.81955763 110.409779,4.81955763 C109.634459,4.81955763 109.04773,5.32246799 108.754366,5.55296857 L108.77532,8.75902212 C108.796275,9.49243306 108.838184,9.57625146 109.655413,9.57625146 L109.655413,10.0372526 C109.194412,9.99534342 108.712456,9.97438882 108.251455,9.97438882 C107.790454,9.97438882 107.308498,9.99534342 106.847497,10.0372526 L106.847497,9.57625146 C107.329453,9.57625146 107.49709,9.55529686 107.622817,9.40861467 C107.748545,9.28288708 107.748545,9.22002328 107.748545,8.52852154 L107.748545,6.76833527 C107.72759,5.1967404 107.72759,5.05005821 106.973225,5.07101281 L106.973225,4.69383003 L106.994179,4.69383003 Z" id="Shape"></path>
            <path d="M122.08149,6.89406286 C122.060536,5.86728754 121.767171,5.80442375 120.740396,5.78346915 L119.273574,5.78346915 L119.273574,8.48661234 C119.294529,9.42956927 119.357392,9.51338766 120.405122,9.57625146 L120.405122,10.0372526 C119.650757,10.016298 119.064028,9.97438882 118.519208,9.97438882 C117.953434,9.97438882 117.471478,9.99534342 116.968568,10.0372526 L116.968568,9.55529686 C117.764843,9.53434226 118.016298,9.47147846 118.079162,8.84284051 C118.100116,8.57043073 118.121071,7.50174622 118.121071,7.25029104 L118.121071,2.43073341 C118.100116,1.36204889 118.100116,1.19441211 116.989523,1.19441211 L116.989523,0.733410943 C118.037253,0.754365541 119.084983,0.796274738 120.132712,0.796274738 C121.30617,0.796274738 122.102445,0.77532014 122.877765,0.733410943 L123.087311,2.78696158 L122.5844,2.82887078 C122.437718,1.42491269 121.746217,1.3410943 119.965076,1.3410943 C119.504075,1.3410943 119.420256,1.3410943 119.357392,1.42491269 C119.315483,1.46682189 119.315483,1.55064028 119.315483,1.71827707 L119.294529,2.5774156 C119.273574,3.98137369 119.273574,4.12805588 119.273574,5.23864959 L120.677532,5.23864959 C121.80908,5.21769499 122.08149,5.1548312 122.123399,4.12805588 L122.5844,4.12805588 C122.563446,4.67287544 122.542491,5.05005821 122.542491,5.51105937 C122.542491,5.97206054 122.563446,6.4330617 122.5844,6.91501746 L122.08149,6.91501746 L122.08149,6.89406286 Z" id="Shape"></path>
            <path d="M129.457509,7.12456345 C129.457509,8.82188591 128.221187,10.1839348 126.419092,10.1839348 C124.428405,10.1839348 123.422584,8.67520373 123.422584,7.14551804 C123.422584,5.28055879 124.784633,4.06519208 126.419092,4.04423749 C128.430733,3.98137369 129.457509,5.55296857 129.457509,7.12456345 Z M124.491269,6.85215367 C124.491269,7.98370198 125.036088,9.63911525 126.523865,9.63911525 C127.718277,9.63911525 128.346915,8.57043073 128.346915,7.27124563 C128.346915,6.16065192 127.739232,4.48428405 126.251455,4.54714785 C125.245634,4.61001164 124.491269,5.53201397 124.491269,6.85215367 Z" id="Shape"></path>
            <path d="M129.960419,4.19091967 C130.798603,4.19091967 131.008149,4.16996508 131.762515,4.04423749 C131.74156,4.88242142 131.74156,5.72060536 131.74156,6.55878929 C131.74156,6.99883586 131.74156,8.02561118 131.825378,8.42374854 C132.01397,9.19906868 132.642608,9.26193248 132.915017,9.26193248 C133.585565,9.26193248 134.046566,8.90570431 134.402794,8.63329453 C134.444703,7.81606519 134.444703,6.72642608 134.444703,5.88824214 C134.444703,4.75669383 134.423749,4.71478463 133.438882,4.71478463 L133.438882,4.25378347 C134.318976,4.25378347 134.528522,4.23282887 135.492433,4.08614668 C135.429569,5.80442375 135.408615,7.7532014 135.408615,8.42374854 C135.408615,9.17811409 135.429569,9.40861467 136.246799,9.40861467 L136.246799,9.84866123 C135.785797,9.86961583 135.513388,9.89057043 134.486612,10.1629802 L134.298021,10.016298 C134.360885,9.63911525 134.360885,9.55529686 134.402794,9.13620489 C134.235157,9.28288708 134.025611,9.47147846 133.732247,9.68102445 C133.334109,9.95343423 132.873108,10.1629802 132.391153,10.1629802 C132.328289,10.1629802 131.720605,10.1629802 131.322468,9.80675204 C130.735739,9.28288708 130.714785,8.50756694 130.714785,7.79511059 L130.714785,5.57392317 C130.69383,4.88242142 130.672875,4.67287544 129.960419,4.71478463 L129.960419,4.19091967 Z" id="Shape"></path>
            <path d="M136.896391,4.69383003 C137.566938,4.44237485 137.75553,4.37951106 138.467986,3.93946449 L138.719441,4.06519208 C138.677532,4.48428405 138.677532,4.58905704 138.677532,5.0919674 C140.08149,4.12805588 140.437718,4.10710128 140.772992,4.10710128 C141.066356,4.10710128 141.443539,4.16996508 141.778813,4.37951106 C142.470314,4.81955763 142.491269,5.49010477 142.491269,6.32828871 L142.491269,8.92665891 C142.491269,9.53434226 142.658906,9.55529686 143.350407,9.59720605 L143.350407,10.0582072 C142.889406,10.016298 142.428405,9.99534342 141.967404,9.99534342 C141.506403,9.99534342 141.045402,10.016298 140.5844,10.0582072 L140.5844,9.59720605 C141.464494,9.57625146 141.464494,9.51338766 141.464494,8.46565774 L141.464494,6.4330617 C141.464494,5.82537835 141.443539,4.81955763 140.311991,4.81955763 C139.536671,4.81955763 138.949942,5.32246799 138.677532,5.55296857 L138.698487,8.75902212 C138.719441,9.49243306 138.76135,9.57625146 139.57858,9.57625146 L139.57858,10.0372526 C139.117579,9.99534342 138.635623,9.97438882 138.174622,9.97438882 C137.71362,9.97438882 137.231665,9.99534342 136.770664,10.0372526 L136.770664,9.57625146 C137.231665,9.57625146 137.420256,9.55529686 137.545984,9.40861467 C137.671711,9.28288708 137.671711,9.22002328 137.671711,8.52852154 L137.671711,6.76833527 C137.650757,5.1967404 137.650757,5.05005821 136.896391,5.07101281 L136.896391,4.69383003 Z" id="Shape"></path>
            <path d="M147.268917,0.77532014 C147.939464,0.523864959 148.128056,0.440046566 148.840512,0.0209545984 L149.071013,0.12572759 C149.029104,0.963911525 149.008149,1.11059371 148.987194,1.96973225 L148.987194,7.83701979 C148.987194,9.17811409 149.008149,9.38766007 149.762515,9.36670547 L149.762515,9.80675204 C149.23865,9.82770664 148.735739,9.91152503 148.107101,10.1001164 L147.897555,9.89057043 C147.91851,9.59720605 147.91851,9.51338766 147.960419,9.17811409 C147.499418,9.53434226 146.828871,10.0791618 145.969732,10.0791618 C144.649593,10.0791618 143.685681,8.73806752 143.685681,7.16647264 C143.685681,5.38533178 144.922002,4.06519208 146.556461,4.06519208 C147.289872,4.06519208 147.771828,4.31664726 148.002328,4.44237485 L148.002328,1.82305006 C147.981374,1.3201397 147.960419,1.15250291 147.289872,1.15250291 L147.289872,0.77532014 L147.268917,0.77532014 Z M147.981374,6.49592549 C147.960419,5.72060536 147.939464,5.30151339 147.541327,4.94528522 C147.227008,4.65192084 146.828871,4.58905704 146.451688,4.58905704 C145.424913,4.58905704 144.649593,5.44819558 144.649593,6.89406286 C144.649593,8.44470314 145.529686,9.30384168 146.514552,9.30384168 C147.206054,9.30384168 147.667055,8.88474971 147.960419,8.61233993 L147.960419,6.49592549 L147.981374,6.49592549 Z" id="Shape"></path>
            <path d="M153.240978,6.78928987 L153.240978,6.05587893 C153.220023,5.61583236 153.199069,4.71478463 152.402794,4.71478463 C152.10943,4.71478463 151.878929,4.84051222 151.774156,4.88242142 C151.2922,5.1338766 151.271246,5.28055879 151.229336,5.57392317 C151.208382,5.63678696 151.208382,5.69965076 151.187427,5.74155995 C151.082654,5.88824214 150.600698,5.99301513 150.537835,5.99301513 C150.391153,5.99301513 150.391153,5.88824214 150.391153,5.82537835 C150.391153,5.80442375 150.391153,5.38533178 150.768335,5.112922 C151.229336,4.73573923 151.857974,4.35855646 152.528522,4.00232829 L152.717113,4.00232829 C153.11525,4.00232829 153.450524,4.08614668 153.764843,4.37951106 C154.183935,4.75669383 154.246799,5.1967404 154.246799,6.05587893 C154.246799,6.3911525 154.183935,8.04656577 154.183935,8.42374854 C154.183935,8.9895227 154.204889,9.45052386 154.582072,9.45052386 C154.770664,9.45052386 154.917346,9.32479627 155.043073,9.22002328 L155.231665,9.51338766 C154.791618,9.89057043 154.351572,10.1001164 153.953434,10.1001164 C153.324796,10.1001164 153.282887,9.53434226 153.240978,9.19906868 C153.052386,9.40861467 152.402794,10.0791618 151.522701,10.0791618 C150.768335,10.0791618 150.181607,9.57625146 150.181607,8.73806752 C150.181607,7.92083818 150.684517,7.7112922 151.606519,7.37601863 L153.240978,6.78928987 Z M153.220023,7.20838184 C151.753201,7.7532014 151.250291,7.92083818 151.250291,8.59138533 C151.250291,9.0104773 151.543655,9.40861467 152.025611,9.40861467 C152.381839,9.40861467 152.800931,9.17811409 153.220023,8.75902212 L153.220023,7.20838184 Z" id="Shape"></path>
            <path d="M155.420256,4.61001164 C156.384168,3.93946449 156.614668,3.31082654 156.824214,2.70314319 L157.222352,2.70314319 L157.201397,4.44237485 L158.982538,4.44237485 L158.772992,5.02910361 L157.159488,5.02910361 L157.117579,7.87892899 C157.117579,8.48661234 157.117579,8.80093132 157.264261,9.07334109 C157.473807,9.40861467 157.85099,9.47147846 158.102445,9.47147846 C158.374854,9.47147846 158.563446,9.40861467 158.814901,9.30384168 L158.940629,9.68102445 C158.291036,9.95343423 157.955763,10.0791618 157.431898,10.0791618 C157.138533,10.0791618 156.719441,10.0372526 156.405122,9.74388824 C156.069849,9.40861467 156.069849,9.0523865 156.069849,8.25611176 L156.132712,5.00814901 L155.336438,5.00814901 L155.420256,4.61001164 Z" id="Shape"></path>
            <path d="M159.820722,4.71478463 C160.470314,4.48428405 160.637951,4.40046566 161.413271,3.96041909 L161.664726,4.06519208 C161.622817,4.56810244 161.601863,4.69383003 161.601863,5.1967404 L161.601863,8.65424913 C161.601863,9.47147846 161.643772,9.51338766 162.440047,9.55529686 L162.440047,9.99534342 C161.979045,9.97438882 161.518044,9.93247963 161.077998,9.93247963 C160.616997,9.93247963 160.155995,9.97438882 159.694994,9.99534342 L159.694994,9.55529686 C160.575087,9.51338766 160.575087,9.45052386 160.596042,8.54947614 L160.596042,5.93015134 C160.575087,5.34342258 160.554133,5.05005821 159.841676,5.07101281 L159.841676,4.71478463 L159.820722,4.71478463 Z M160.323632,1.11059371 C160.323632,0.754365541 160.616997,0.461001164 160.973225,0.461001164 C161.329453,0.461001164 161.622817,0.754365541 161.622817,1.11059371 C161.622817,1.46682189 161.329453,1.76018626 160.973225,1.76018626 C160.805588,1.76018626 160.637951,1.69732247 160.512224,1.57159488 C160.386496,1.46682189 160.323632,1.2782305 160.323632,1.11059371 Z" id="Shape"></path>
            <path d="M168.831199,7.12456345 C168.831199,8.82188591 167.594878,10.1839348 165.792782,10.1839348 C163.802095,10.1839348 162.796275,8.67520373 162.796275,7.14551804 C162.796275,5.28055879 164.158324,4.06519208 165.792782,4.04423749 C167.825378,3.98137369 168.831199,5.55296857 168.831199,7.12456345 Z M163.885914,6.85215367 C163.885914,7.98370198 164.430733,9.63911525 165.91851,9.63911525 C167.112922,9.63911525 167.74156,8.57043073 167.74156,7.27124563 C167.74156,6.16065192 167.133877,4.48428405 165.6461,4.54714785 C164.640279,4.61001164 163.885914,5.53201397 163.885914,6.85215367 Z" id="Shape"></path>
            <path d="M169.208382,4.69383003 C169.878929,4.44237485 170.046566,4.37951106 170.779977,3.93946449 L171.031432,4.06519208 C170.989523,4.48428405 170.968568,4.58905704 170.968568,5.0919674 C172.372526,4.12805588 172.728754,4.10710128 173.064028,4.10710128 C173.357392,4.10710128 173.734575,4.16996508 174.069849,4.37951106 C174.76135,4.81955763 174.782305,5.49010477 174.782305,6.32828871 L174.782305,8.92665891 C174.782305,9.53434226 174.949942,9.55529686 175.641444,9.59720605 L175.641444,10.0582072 C175.180442,10.016298 174.719441,9.99534342 174.25844,9.99534342 C173.797439,9.99534342 173.336438,10.016298 172.875437,10.0582072 L172.875437,9.59720605 C173.75553,9.57625146 173.75553,9.51338766 173.75553,8.46565774 L173.75553,6.4330617 C173.75553,5.82537835 173.734575,4.81955763 172.603027,4.81955763 C171.827707,4.81955763 171.240978,5.32246799 170.947614,5.55296857 L170.968568,8.75902212 C170.989523,9.49243306 171.010477,9.57625146 171.848661,9.57625146 L171.848661,10.0372526 C171.38766,9.99534342 170.905704,9.97438882 170.444703,9.97438882 C169.983702,9.97438882 169.501746,9.99534342 169.040745,10.0372526 L169.040745,9.57625146 C169.501746,9.57625146 169.690338,9.55529686 169.816065,9.40861467 C169.941793,9.28288708 169.941793,9.22002328 169.941793,8.52852154 L169.941793,6.76833527 C169.920838,5.1967404 169.920838,5.05005821 169.166473,5.07101281 L169.166473,4.69383003 L169.208382,4.69383003 Z" id="Shape"></path>
        </g>
        <g id="Group" transform="translate(130.128056, 0.000000)">
            <path d="M19.3830035,31.8928987 C9.40861467,35.5180442 6.64260768,31.6414435 6.64260768,31.6414435 C6.64260768,31.6414435 12.4260768,32.5844005 17.790454,32.1024447 L19.3830035,31.8928987 Z" id="Shape" fill="#7FA6CF"></path>
            <path d="M2.74505239,27.0314319 C2.74505239,27.0314319 12.5937136,29.9650757 21.9185099,31.5157159 C3.79278231,32.2700815 2.74505239,27.0314319 2.74505239,27.0314319 Z" id="Shape" fill="#7FA6CF"></path>
            <path d="M0.0209545984,18.9010477 C0.0209545984,18.9010477 13.4738068,27.3247963 23.217695,31.3271246 C-1.55064028,26.0256112 0.0209545984,18.9010477 0.0209545984,18.9010477 Z" id="Shape" fill="#7FA6CF"></path>
            <path d="M47.1479584,20.6402794 C47.1479584,20.6402794 31.9348079,28.3515716 17.790454,32.1024447 C47.4412107,28.43539 47.1479584,20.6402794 47.1479584,20.6402794 Z" id="Shape" fill="#0066A5"></path>
            <path d="M49.3899884,0 C32.0814901,17.3084983 24.4749709,22.3166473 12.572759,33.3597206 C49.410943,13.5157159 49.3899884,0 49.3899884,0 Z" id="Shape" fill="#0066A5"></path>
            <path d="M35.790454,32.4167637 C35.790454,32.4167637 28.7287544,32.6263097 24.8521537,31.8719441 C33.3806752,35.0989523 35.790454,32.4167637 35.790454,32.4167637 Z" id="Shape" fill="#0066A5"></path>
            <path d="M49.6833527,11.2316647 C28.9173458,24.7892899 22.2537835,29.0430733 14.1862631,33.233993 C48.9289872,21.2689173 49.6833527,11.2316647 49.6833527,11.2316647 Z" id="Shape" fill="#0066A5"></path>
            <path d="M41.5948778,28.5611176 C41.5948778,28.5611176 31.9348079,31.0128056 23.3015134,31.4947614 C39.4365541,33.2968568 41.5948778,28.5611176 41.5948778,28.5611176 Z" id="Shape" fill="#0066A5"></path>
        </g>
    </g>
</svg>
