<?xml version="1.0" encoding="UTF-8"?>
<svg width="180px" height="47px" viewBox="0 0 180 47" version="1.1" xmlns="http://www.w3.org/2000/svg" xmlns:xlink="http://www.w3.org/1999/xlink">
    <title>The American Association of Retired Persons (AARP)</title>
    <desc>The AARP logo</desc>
    <g id="aarp-logo">
        <g id="Group" fill="#EF3829">
            <path d="M124.809923,10.5806116 C124.809923,7.35146389 123.091251,5.01548471 119.825776,5.01548471 L117.625876,5.01548471 L117.625876,16.0770332 L119.825776,16.0770332 C122.919384,16.1113858 124.809923,14.0502277 124.809923,10.5806116 Z M93.2894879,10.5806116 C93.2894879,7.62628497 91.8114304,5.01548471 87.6866188,5.01548471 L86.1054411,5.01548471 L86.1054411,16.0770332 L87.6866188,16.0770332 C91.3645758,16.1113858 93.2894879,14.0158751 93.2894879,10.5806116 Z M59.8785143,17.1763175 L56.5786651,8.34769031 L53.210069,17.1763175 C53.3819361,17.1419649 55.1693545,16.9358491 56.5786651,16.9358491 C58.091096,16.9702017 59.7410206,17.1763175 59.8785143,17.1763175 Z M33.0672393,17.3824333 L29.7330166,8.2446324 L26.5019142,17.0045543 C27.0518891,16.9702017 27.6362374,16.9702017 28.2893325,16.9702017 C30.9017132,16.9702017 32.8609987,17.3480807 33.0672393,17.3824333 Z M135.912541,10.5806116 C135.912541,16.9358491 130.89402,21.0238126 122.610023,21.0238126 L117.625876,21.0238126 L117.625876,29.8180872 L95.1456531,29.8180872 L86.0710677,17.8633702 L86.0710677,29.8180872 L64.3814336,29.8180872 L62.009667,23.2567339 C61.8721732,23.2223813 59.4316597,22.775797 56.5786651,22.775797 C53.7256704,22.775797 51.2164101,23.2223813 51.0445429,23.2567339 L48.6040294,29.8180872 L37.5357851,29.8180872 L35.7483668,24.8369551 C38.4638677,25.5240078 40.5262735,26.6232921 41.5574764,27.2416396 L42.0043309,26.1080026 C40.3200329,25.1117762 35.6796199,22.7414444 28.9768011,22.7414444 C23.7864133,22.7414444 20.486564,24.0124919 15.124309,24.0124919 C6.3934579,24.0124919 0.343734296,19.7527651 0.0343734296,19.5466493 L2.37176664,13.8784645 C2.95611494,14.2563435 8.79959797,18.0351334 15.4680433,18.0351334 C16.6023665,18.0351334 17.5648225,17.9664281 18.4929051,17.8977228 L25.7800722,0.171763175 L26.8112751,0.171763175 L32.7578784,0.171763175 L37.845146,0.171763175 L45.0291927,18.7565387 L52.6257207,0.13741054 L64.7251679,0.13741054 L75.2778108,27.5508133 L75.2778108,0.171763175 L89.7146512,0.171763175 C99.5454521,0.171763175 104.357732,4.67195836 104.357732,10.6149642 C104.357732,16.5579701 99.6829458,18.8595966 98.3767554,19.4435914 L106.832619,28.6500976 L106.832619,0.171763175 L122.610023,0.171763175 C131.340874,0.171763175 135.912541,4.56890046 135.912541,10.5806116 Z M23.7520398,24.2186077 C23.7864133,24.2186077 23.8207867,24.2186077 23.8207867,24.2186077 L21.7583809,29.8524398 L21.6552606,29.8524398 L13.6118781,29.8524398 L13.5087578,29.8524398 L15.5024167,25.0430709 L15.5711636,25.0430709 C16.1211385,25.0087183 19.9022157,25.0087183 23.7520398,24.2186077 Z" id="Shape"></path>
            <path d="M138.387427,3.05738452 L138.765535,3.05738452 C139.21239,3.05738452 139.590498,2.88562134 139.590498,2.47338972 C139.590498,2.16421601 139.384257,1.88939493 138.765535,1.88939493 C138.593668,1.88939493 138.456174,1.88939493 138.387427,1.92374756 L138.387427,3.05738452 Z M138.387427,4.91242681 L137.837453,4.91242681 L137.837453,1.54586858 C138.11244,1.51151594 138.387427,1.47716331 138.799909,1.47716331 C139.31551,1.47716331 139.659244,1.58022121 139.831112,1.71763175 C140.037352,1.85504229 140.140472,2.09551074 140.140472,2.40468445 C140.140472,2.85126871 139.831112,3.12608979 139.487377,3.22914769 L139.487377,3.26350033 C139.796738,3.3322056 139.968605,3.57267404 140.037352,4.08796357 C140.106099,4.60325309 140.209219,4.8093689 140.243593,4.91242681 L139.693618,4.91242681 C139.624871,4.8093689 139.521751,4.50019519 139.453004,4.05361093 C139.384257,3.64137931 139.143643,3.46961614 138.731162,3.46961614 L138.353054,3.46961614 L138.353054,4.91242681 L138.387427,4.91242681 Z M138.971776,0.61834743 C137.631212,0.61834743 136.565636,1.75198439 136.565636,3.16044242 C136.565636,4.60325309 137.665585,5.70253741 138.971776,5.70253741 C140.31234,5.70253741 141.377916,4.56890046 141.377916,3.16044242 C141.377916,1.75198439 140.31234,0.61834743 138.971776,0.61834743 Z M138.971776,0.171763175 C140.6217,0.171763175 141.927891,1.51151594 141.927891,3.19479506 C141.927891,4.87807417 140.6217,6.21782694 138.971776,6.21782694 C137.321851,6.21782694 135.981287,4.91242681 135.981287,3.19479506 C135.981287,1.47716331 137.321851,0.171763175 138.971776,0.171763175 Z" id="Shape"></path>
        </g>
        <g id="Group" transform="translate(74.716981, 35.320755)">
            <path d="M0.310671203,0.701156421 L3.76257346,0.701156421 C6.24794309,0.701156421 6.90380452,2.24370055 6.90380452,3.47072428 C6.90380452,4.73280584 5.97179091,5.92477176 4.48747294,6.10006086 L7.24899474,10.6225198 L5.59208166,10.6225198 L3.10671203,6.24029215 L1.62239406,6.24029215 L1.62239406,10.6225198 L0.310671203,10.6225198 L0.310671203,0.701156421 Z M1.65691308,5.08338405 L3.38286421,5.08338405 C4.41843489,5.08338405 5.48852459,4.83797931 5.48852459,3.47072428 C5.48852459,2.13852708 4.45295391,1.85806452 3.38286421,1.85806452 L1.65691308,1.85806452 L1.65691308,5.08338405 Z" id="Shape" fill="#EF3829"></path>
            <path d="M9.76888339,7.78283628 C9.76888339,8.93974437 10.8389731,9.71101643 11.9781008,9.71101643 C12.7375193,9.71101643 13.2898237,9.3253804 13.77309,8.72939744 L14.7051036,9.46561169 C14.0147232,10.377115 13.0481905,10.8328667 11.8055057,10.8328667 C9.73436437,10.8328667 8.42264151,9.3253804 8.42264151,7.3270846 C8.42264151,5.3287888 9.83792144,3.8213025 11.8055057,3.8213025 C14.1182802,3.8213025 14.9812558,5.60925137 14.9812558,7.3270846 L14.9812558,7.78283628 L9.76888339,7.78283628 Z M13.6695329,6.76615946 C13.6350139,5.64430919 13.0481905,4.83797931 11.7709867,4.83797931 C10.5283019,4.83797931 9.73436437,5.88971394 9.73436437,6.76615946 L13.6695329,6.76615946 Z" id="Shape" fill="#000000"></path>
            <path d="M16.6036499,4.80292149 C17.2940303,4.13682288 18.295082,3.8213025 19.1925766,3.8213025 C21.1256418,3.8213025 21.9195793,4.87303713 21.9195793,6.02994522 L21.9195793,9.43055386 C21.9195793,9.88630554 21.9195793,10.2719416 21.9886174,10.6225198 L20.8840087,10.6225198 C20.8494896,10.2719416 20.8494896,9.95642118 20.8494896,9.60584297 L20.8149706,9.60584297 C20.2626663,10.4472307 19.5032478,10.7978089 18.5367151,10.7978089 C17.3285493,10.7978089 16.2584596,10.0966525 16.2584596,8.79951309 C16.2584596,7.08167985 17.8808537,6.4856969 19.848438,6.4856969 L20.7459326,6.4856969 L20.7459326,6.20523433 C20.7459326,5.50407791 20.2626663,4.80292149 19.1925766,4.80292149 C18.2260439,4.80292149 17.7772966,5.22361534 17.3285493,5.57419355 L16.6036499,4.80292149 Z M20.0900711,7.43225806 C18.9164244,7.43225806 17.4666254,7.64260499 17.4666254,8.69433962 C17.4666254,9.46561169 18.0189298,9.78113208 18.8819054,9.78113208 C20.2626663,9.78113208 20.7459326,8.72939744 20.7459326,7.85295192 L20.7459326,7.43225806 L20.0900711,7.43225806 Z" id="Shape" fill="#000000"></path>
            <polygon id="Shape" fill="#000000" points="24.0942778 0.0350578211 25.3369626 0.0350578211 25.3369626 10.6225198 24.0942778 10.6225198"></polygon>
            <path d="M32.171729,0.701156421 L35.6236313,0.701156421 C38.1090009,0.701156421 38.7648624,2.24370055 38.7648624,3.47072428 C38.7648624,4.73280584 38.14352,6.24029215 35.6236313,6.24029215 L33.4834519,6.24029215 L33.4834519,10.6225198 L32.171729,10.6225198 L32.171729,0.701156421 Z M33.4834519,5.08338405 L35.209403,5.08338405 C36.2449737,5.08338405 37.3150634,4.83797931 37.3150634,3.47072428 C37.3150634,2.13852708 36.2794927,1.85806452 35.209403,1.85806452 L33.4834519,1.85806452 L33.4834519,5.08338405 Z" id="Shape" fill="#EF3829"></path>
            <path d="M42.872626,3.8213025 C44.8056913,3.8213025 46.3590473,5.36384662 46.3590473,7.3270846 C46.3590473,9.25526476 44.8402103,10.8328667 42.872626,10.8328667 C40.9395608,10.8328667 39.3862048,9.29032258 39.3862048,7.3270846 C39.3862048,5.36384662 40.9395608,3.8213025 42.872626,3.8213025 Z M42.872626,9.64090079 C44.1843489,9.64090079 45.0128054,8.6592818 45.0128054,7.3270846 C45.0128054,5.9948874 44.1843489,5.01326841 42.872626,5.01326841 C41.5609032,5.01326841 40.7324466,5.9948874 40.7324466,7.3270846 C40.7324466,8.6592818 41.5609032,9.64090079 42.872626,9.64090079 Z" id="Shape" fill="#000000"></path>
            <path d="M51.6404578,5.64430919 C51.3643056,5.29373098 50.9155583,4.97821059 50.2942159,4.97821059 C49.7073925,4.97821059 49.1896072,5.25867316 49.1896072,5.71442483 C49.1896072,6.52075472 50.2942159,6.62592818 50.8465203,6.76615946 C51.91661,7.04662203 52.7450665,7.46731589 52.7450665,8.69433962 C52.7450665,10.2018259 51.3988246,10.7978089 50.0871018,10.7978089 C49.0170121,10.7978089 48.2230745,10.5173463 47.5672131,9.60584297 L48.4992267,8.83457091 C48.913455,9.25526476 49.3622023,9.60584297 50.0871018,9.60584297 C50.7084442,9.60584297 51.3988246,9.3253804 51.3988246,8.76445526 C51.3988246,7.9931832 50.3632539,7.85295192 49.8109496,7.74777845 C48.7408599,7.46731589 47.8088463,7.11673767 47.8088463,5.85465612 C47.8088463,4.45234327 49.0515311,3.8213025 50.2942159,3.8213025 C51.1571915,3.8213025 52.0546861,4.13682288 52.5379524,4.90809495 L51.6404578,5.64430919 Z" id="Shape" fill="#000000"></path>
            <path d="M58.060996,5.64430919 C57.7848438,5.29373098 57.3360965,4.97821059 56.7147541,4.97821059 C56.1279307,4.97821059 55.6101454,5.25867316 55.6101454,5.71442483 C55.6101454,6.52075472 56.7147541,6.62592818 57.2670585,6.76615946 C58.3371482,7.04662203 59.1656047,7.46731589 59.1656047,8.69433962 C59.1656047,10.2018259 57.8193628,10.7978089 56.50764,10.7978089 C55.4375503,10.7978089 54.6436127,10.5173463 53.9877513,9.60584297 L54.9197649,8.83457091 C55.3339932,9.25526476 55.7827405,9.60584297 56.50764,9.60584297 C57.1289824,9.60584297 57.8193628,9.3253804 57.8193628,8.76445526 C57.8193628,7.9931832 56.7837921,7.85295192 56.2314878,7.74777845 C55.1613981,7.46731589 54.2293845,7.11673767 54.2293845,5.85465612 C54.2293845,4.45234327 55.4720693,3.8213025 56.7147541,3.8213025 C57.5777297,3.8213025 58.4752242,4.13682288 58.9584906,4.90809495 L58.060996,5.64430919 Z" id="Shape" fill="#000000"></path>
            <path d="M61.6854933,0.6660986 C62.1687597,0.6660986 62.5829879,1.08679245 62.5829879,1.57760195 C62.5829879,2.06841144 62.1687597,2.4891053 61.6854933,2.4891053 C61.202227,2.4891053 60.7879988,2.06841144 60.7879988,1.57760195 C60.7534797,1.08679245 61.167708,0.6660986 61.6854933,0.6660986 Z M61.0641509,3.9965916 L62.3068358,3.9965916 L62.3068358,10.6575776 L61.0641509,10.6575776 L61.0641509,3.9965916 Z" id="Shape" fill="#000000"></path>
            <path d="M64.5505722,0.0350578211 L65.793257,0.0350578211 L65.793257,4.94315277 L65.8277761,4.94315277 C66.2765234,4.24199635 67.1740179,3.8213025 68.1060315,3.8213025 C70.1081349,3.8213025 71.4198577,5.3287888 71.4198577,7.3270846 C71.4198577,9.29032258 70.1081349,10.8328667 68.1060315,10.8328667 C67.208537,10.8328667 66.3110424,10.4121729 65.8277761,9.71101643 L65.793257,9.71101643 L65.793257,10.6575776 L64.5505722,10.6575776 L64.5505722,0.0350578211 Z M70.0736158,7.3270846 C70.0736158,5.9948874 69.2451593,5.01326841 67.9334364,5.01326841 C66.6217136,5.01326841 65.793257,5.9948874 65.793257,7.3270846 C65.793257,8.6592818 66.6217136,9.64090079 67.9334364,9.64090079 C69.2451593,9.64090079 70.0736158,8.6592818 70.0736158,7.3270846 Z" id="Shape" fill="#000000"></path>
            <path d="M73.6290752,0.6660986 C74.1123415,0.6660986 74.5265697,1.08679245 74.5265697,1.57760195 C74.5265697,2.06841144 74.1123415,2.4891053 73.6290752,2.4891053 C73.1458088,2.4891053 72.7315806,2.06841144 72.7315806,1.57760195 C72.7315806,1.08679245 73.1458088,0.6660986 73.6290752,0.6660986 Z M73.0077328,3.9965916 L74.2504176,3.9965916 L74.2504176,10.6575776 L73.0077328,10.6575776 L73.0077328,3.9965916 Z" id="Shape" fill="#000000"></path>
            <polygon id="Shape" fill="#000000" points="76.459635 0.0350578211 77.7023198 0.0350578211 77.7023198 10.6225198 76.459635 10.6225198"></polygon>
            <path d="M80.5328797,0.6660986 C81.016146,0.6660986 81.4303743,1.08679245 81.4303743,1.57760195 C81.4303743,2.06841144 81.016146,2.4891053 80.5328797,2.4891053 C80.0496134,2.4891053 79.6353851,2.06841144 79.6353851,1.57760195 C79.6353851,1.08679245 80.0496134,0.6660986 80.5328797,0.6660986 Z M79.9115373,3.9965916 L81.1542221,3.9965916 L81.1542221,10.6575776 L79.9115373,10.6575776 L79.9115373,3.9965916 Z" id="Shape" fill="#000000"></path>
            <path d="M87.2986081,5.08338405 L85.5036189,5.08338405 L85.5036189,8.09835666 C85.5036189,8.83457091 85.5036189,9.64090079 86.4356325,9.64090079 C86.7117847,9.64090079 87.0569749,9.60584297 87.3331271,9.43055386 L87.3331271,10.587462 C87.0569749,10.7627511 86.4701516,10.7978089 86.2285184,10.7978089 C84.2954531,10.7978089 84.2954531,9.60584297 84.2954531,8.55410834 L84.2954531,5.08338405 L82.8456542,5.08338405 L82.8456542,3.9965916 L84.2954531,3.9965916 L84.2954531,2.13852708 L85.538138,2.13852708 L85.538138,3.9965916 L87.3331271,3.9965916 L87.3331271,5.08338405 L87.2986081,5.08338405 Z" id="Shape" fill="#000000"></path>
            <path d="M89.7494587,0.6660986 C90.232725,0.6660986 90.6469533,1.08679245 90.6469533,1.57760195 C90.6469533,2.06841144 90.232725,2.4891053 89.7494587,2.4891053 C89.2661924,2.4891053 88.8519641,2.06841144 88.8519641,1.57760195 C88.8519641,1.08679245 89.2661924,0.6660986 89.7494587,0.6660986 Z M89.1281163,3.9965916 L90.3708011,3.9965916 L90.3708011,10.6575776 L89.1281163,10.6575776 L89.1281163,3.9965916 Z" id="Shape" fill="#000000"></path>
            <path d="M93.6501083,7.78283628 C93.6501083,8.93974437 94.720198,9.71101643 95.8593257,9.71101643 C96.6187442,9.71101643 97.1710486,9.3253804 97.6543149,8.72939744 L98.5863285,9.46561169 C97.895948,10.377115 96.9294154,10.8328667 95.6867306,10.8328667 C93.6155892,10.8328667 92.3038664,9.3253804 92.3038664,7.3270846 C92.3038664,5.3287888 93.7191463,3.8213025 95.6867306,3.8213025 C97.9995051,3.8213025 98.8624807,5.60925137 98.8624807,7.3270846 L98.8624807,7.78283628 L93.6501083,7.78283628 Z M97.5507578,6.76615946 C97.5162388,5.64430919 96.9294154,4.83797931 95.6522116,4.83797931 C94.4095268,4.83797931 93.6155892,5.88971394 93.6155892,6.76615946 L97.5507578,6.76615946 Z" id="Shape" fill="#000000"></path>
            <path d="M104.109372,5.64430919 C103.83322,5.29373098 103.384473,4.97821059 102.76313,4.97821059 C102.176307,4.97821059 101.658521,5.25867316 101.658521,5.71442483 C101.658521,6.52075472 102.76313,6.62592818 103.315435,6.76615946 C104.385524,7.04662203 105.213981,7.46731589 105.213981,8.69433962 C105.213981,10.2018259 103.867739,10.7978089 102.556016,10.7978089 C101.485926,10.7978089 100.691989,10.5173463 100.036127,9.60584297 L100.968141,8.83457091 C101.382369,9.25526476 101.831117,9.60584297 102.556016,9.60584297 C103.177358,9.60584297 103.867739,9.3253804 103.867739,8.76445526 C103.867739,7.9931832 102.832168,7.85295192 102.279864,7.74777845 C101.209774,7.46731589 100.277761,7.11673767 100.277761,5.85465612 C100.277761,4.45234327 101.520445,3.8213025 102.76313,3.8213025 C103.626106,3.8213025 104.5236,4.13682288 105.006867,4.90809495 L104.109372,5.64430919 Z" id="Shape" fill="#000000"></path>
        </g>
    </g>
</svg>
