<?xml version="1.0" encoding="UTF-8"?>
<svg width="177px" height="23px" viewBox="0 0 177 23" version="1.1" xmlns="http://www.w3.org/2000/svg" xmlns:xlink="http://www.w3.org/1999/xlink">
    <title>The Brookings Institute</title>
    <desc>The Brookings Institute logo</desc>
    <g id="brookings-logo" fill="#013D79" fill-rule="nonzero">
        <path d="M3.04003656,4.11678033 C3.04003656,2.83984262 3.04003656,2.34977049 2.88128098,2.21862131 C2.72252541,2.08745738 2.26006557,1.98394262 0.865778197,1.92182787 L0.865778197,1.35583115 C1.27302082,1.35583115 3.19189016,1.4179459 4.31698164,1.4179459 C5.00722262,1.4179459 5.55941541,1.4179459 6.30487508,1.35583115 C7.05033475,1.29371639 7.8855259,1.26612623 8.66549836,1.26612623 C10.7362198,1.26612623 12.4273095,1.48009016 13.4971823,2.19795082 C14.9032323,3.1233308 15.7369282,4.7047444 15.705952,6.38770164 C15.705952,8.74832787 14.1805213,10.425618 11.4471682,11.454082 C11.249278,11.4553964 11.059286,11.5318829 10.9156828,11.6680459 C10.9156828,11.7922754 11.129657,11.7922754 11.8475074,11.9510443 C14.7672254,12.5377557 16.6791928,14.2495557 16.6791928,17.0105197 C16.6649994,19.0052694 15.5235752,20.8203188 13.7318654,21.6972475 C12.350467,22.3298543 10.839366,22.627815 9.32122656,22.5669426 C8.54815754,22.5669426 7.67155164,22.5669426 6.8018477,22.4772377 C5.93214525,22.3875328 5.09005213,22.415123 4.31698164,22.415123 C3.22640148,22.415123 1.30753213,22.4772377 0.865778197,22.4772377 L0.865778197,21.8629361 C2.24626016,21.8008213 2.70181803,21.7732311 2.88818295,21.5868279 C3.07454934,21.4004689 3.04693852,20.9656213 3.04693852,19.6886689 L3.04693852,4.11683934 L3.04003656,4.11678033 Z M5.52490262,11.364318 C6.21514361,11.4264328 7.23669967,11.4885475 8.3825,11.4885475 C9.34920374,11.5845806 10.3225714,11.389903 11.1779738,10.929441 C12.5524287,10.1135535 13.3727238,8.61321071 13.3177208,7.01578361 C13.33997,5.48905567 12.7186546,4.02345519 11.6059238,2.97788197 C10.6395864,2.14268197 9.39715262,1.88728852 7.87862393,1.88728852 C6.10470475,1.88728852 5.7664877,2.01151803 5.64224344,2.26002131 C5.58701885,2.39118525 5.5249041,2.70177377 5.5249041,4.06846066 L5.52490262,11.364318 Z M5.52490262,19.6886098 C5.52490262,21.179541 5.52490262,21.4625393 5.6836582,21.6143885 C5.84241377,21.7662377 6.55336213,21.890482 8.44462066,21.890482 C10.1564177,21.890482 11.3367293,21.5798787 12.2064333,20.8965426 C13.4064795,19.9072121 14.0733367,18.4125283 14.0079603,16.8586262 C14.0079603,14.1597918 12.765528,12.075259 8.35488918,12.075259 C7.05033475,12.075259 6.24275295,12.1373738 5.52490262,12.1994885 L5.52490262,19.6886098 Z M24.1614003,19.7231344 C24.1614003,20.993182 24.1614003,21.4970639 24.3201559,21.6213082 C24.4789115,21.7455377 24.9758856,21.8076672 26.5565364,21.8974016 L26.5565364,22.4910033 C25.9698308,22.4910033 24.1959131,22.4288885 22.918968,22.4288885 C21.8283879,22.4288885 19.9026166,22.4910033 19.4677646,22.4910033 L19.4677646,21.8974016 C20.8482451,21.8352869 21.3038044,21.8076967 21.4901693,21.6213082 C21.6765343,21.4349344 21.6489249,21.0000869 21.6489249,19.7231344 L21.6489249,4.11679508 C21.6489249,2.83985738 21.6489249,2.34978525 21.4901693,2.21863607 C21.3314138,2.08747213 20.8689525,2.00467213 19.4677646,1.9356377 L19.4677646,1.3558459 C19.8750072,1.3558459 21.7938751,1.41796066 22.918968,1.41796066 C23.4780628,1.41796066 24.1614003,1.41796066 24.9068615,1.32132131 C25.6523211,1.22468197 26.4875123,1.23855082 26.9844849,1.23855082 C29.2553767,1.23855082 31.1259293,1.54916885 32.3614597,2.3843541 C33.8533601,3.31696824 34.7667289,4.94594213 34.7842051,6.70526885 C34.7842051,9.21774426 33.0171893,10.8053 30.3390549,11.6404852 C29.5038638,11.9234836 29.3174989,11.9510885 29.3174989,12.0477279 C29.3174989,12.1443672 29.4141382,12.1719574 29.5314731,12.199577 L30.0008364,12.3238066 C34.3769625,13.5317246 34.9084479,16.7689508 35.0326907,20.0890213 C35.0326907,21.1450902 35.12933,21.4695033 35.2535684,21.5799377 C35.3778126,21.6902984 35.7505425,21.7939164 37.2690711,21.8560311 L37.2690711,22.4496328 C34.5081087,22.387518 33.8178677,22.387518 32.4857039,22.387518 L32.4857039,19.8129279 C32.4857039,15.8647459 31.9887298,14.8708066 30.8084182,13.8147377 C29.6281066,12.7586541 28.4754057,12.3997311 26.1769031,12.3997311 L24.1614003,12.3997311 L24.1614003,19.7231344 Z M24.1614003,11.5230869 C25.2334931,11.6530012 26.3118659,11.7244282 27.3917275,11.7370508 C30.9671738,11.7370508 32.299339,9.16246066 32.299339,6.98819344 C32.3567153,5.40821671 31.6374673,3.90011942 30.3735662,2.9502918 C29.4417416,2.20484098 28.1716985,1.89422295 26.1492938,1.89422295 C24.5962523,1.89422295 24.3132539,2.08059672 24.2511318,2.23935082 C24.189017,2.39810492 24.1544925,2.67419836 24.1544925,4.07539508 L24.1544925,11.5299918 L24.1614003,11.5230869 Z M48.4785788,0.900283607 C53.7244103,0.900283607 58.9495285,4.81394098 58.9495285,11.8958197 C58.9495285,18.9776836 53.7313123,22.8913557 48.4785788,22.8913557 C43.2258495,22.8913557 38.0283362,18.9776836 38.0283362,11.8958197 C38.0283362,4.81394098 43.2327515,0.900283607 48.4785788,0.900283607 Z M48.4785788,1.55601475 C43.8470633,1.55601475 40.8376169,5.93213934 40.8376169,11.9096148 C40.8376169,17.8871049 43.8470633,22.2632295 48.4785788,22.2632295 C53.1100954,22.2632295 56.1195464,17.8802 56.1195464,11.9096148 C56.1195464,5.93904426 53.1100954,1.54910984 48.4785788,1.54910984 L48.4785788,1.55601475 Z M72.0226895,0.900283607 C77.2754211,0.900283607 82.4867369,4.81394098 82.4867369,11.8958197 C82.4867369,18.9776836 77.2754211,22.8913557 72.0226895,22.8913557 C66.769956,22.8913557 61.5586418,18.9776836 61.5586418,11.8958197 C61.5586418,4.81394098 66.7768624,0.900283607 72.0226895,0.900283607 Z M72.0226895,1.55601475 C67.3911729,1.55601475 64.3817264,5.93213934 64.3817264,11.9096148 C64.3817264,17.8871049 67.3911729,22.2632295 72.0226895,22.2632295 C76.6542043,22.2632295 79.6636523,17.8802 79.6636523,11.9096148 C79.6636523,5.93904426 76.6818151,1.54910984 72.0226895,1.54910984 L72.0226895,1.55601475 Z M89.0440233,19.6886393 C89.0440233,20.9586721 89.0440233,21.4625541 89.1958769,21.5867984 C89.3477305,21.7110279 89.8516066,21.7731574 91.4322574,21.8628918 L91.4322574,22.4564934 C90.8386513,22.4564934 89.0716341,22.3943787 87.7946875,22.3943787 C86.7110123,22.3943787 84.785241,22.4564934 84.3779954,22.4564934 L84.3779954,21.8628918 C85.7584774,21.800777 86.2071348,21.7731869 86.3935011,21.5867984 C86.5798631,21.4004246 86.5522567,20.965577 86.5522567,19.6886246 L86.5522567,4.11679508 C86.5522567,2.83985738 86.5522567,2.34978525 86.3935011,2.21863607 C86.2347456,2.08747213 85.7722843,2.00467213 84.3779954,1.9356377 L84.3779954,1.35581639 C84.778339,1.3558459 86.7041103,1.41796066 87.7946875,1.41796066 C89.0716341,1.41796066 90.8386513,1.3558459 91.4322574,1.3558459 L91.4322574,1.92184262 C89.8516066,2.01848197 89.3615344,2.01848197 89.1958769,2.20484098 C89.0302208,2.3912 89.0440233,2.82604754 89.0440233,4.103 L89.0440233,11.7094459 C89.3410015,11.7577521 89.6406744,11.7877105 89.941338,11.7991508 C90.5004313,11.7991508 91.5219874,10.556723 94.4762167,6.73969016 C96.5469411,4.04084098 97.4304461,2.63965902 97.4304461,2.36356557 C97.4304461,2.08747213 97.3062018,2.04605738 96.9955956,2.04605738 C96.6849864,2.04605738 95.9395267,1.98394262 95.1664592,1.94941803 L95.1664592,1.35581639 C96.1880152,1.35581639 97.3062048,1.41793115 98.3346628,1.41793115 C99.3631238,1.41793115 100.722895,1.35581639 101.28199,1.35581639 L101.28199,1.92181311 C100.639229,1.88326058 99.9950107,1.96759032 99.3838297,2.17028689 C99.0111013,2.35666066 98.6935902,2.72939344 97.4580569,4.24100984 L92.5573474,10.2806148 C92.4805099,10.3442563 92.4270775,10.4316939 92.4054982,10.5291033 C92.4946136,10.7453384 92.6342613,10.9370632 92.8127379,11.0882098 L100.633165,20.4064557 C101.654721,21.6143738 101.875596,21.738618 103.180155,21.8628623 L103.180155,22.4564934 C102.489913,22.4564639 100.943775,22.3943492 99.8600949,22.3943492 C98.7764197,22.3943492 97.4373525,22.3943492 96.2570408,22.4564639 L96.2570408,21.8628623 C97.0301084,21.8628623 97.9619344,21.8628623 97.9619344,21.3658852 C97.9619344,20.8689082 96.7816228,19.529841 96.3812836,19.0673885 L91.3149166,13.0898984 C90.8179425,12.4686918 90.6246741,12.3444475 89.0440233,12.282318 L89.0440233,19.6886393 Z M110.94536,19.6886393 C110.94536,20.9586721 110.94536,21.4625541 111.097213,21.5867984 C111.249067,21.7110279 111.752943,21.7731574 113.333594,21.8628918 L113.333594,22.4564934 C112.739988,22.4564934 110.97297,22.3943787 109.696024,22.3943787 C108.41908,22.3943787 106.652064,22.4564934 106.065359,22.4564934 L106.065359,21.8628918 C107.652912,21.7731869 108.136082,21.7731869 108.301739,21.5867984 C108.467395,21.4004246 108.460495,20.965577 108.460495,19.6886246 L108.460495,4.11679508 C108.460495,2.83985738 108.460495,2.34978525 108.301739,2.21863607 C108.142984,2.08747213 107.652912,2.03227705 106.065359,1.9356377 L106.065359,1.3558459 C106.652064,1.3558459 108.425982,1.41796066 109.696024,1.41796066 C110.966068,1.41796066 112.74689,1.3558459 113.333594,1.3558459 L113.333594,1.92184262 C111.752943,2.01848197 111.262871,2.01848197 111.097213,2.20484098 C110.931557,2.3912 110.94536,2.82604754 110.94536,4.103 L110.94536,19.6886393 Z M123.183329,22.4564934 C122.810598,22.4564934 121.195434,22.3943787 120.263608,22.3943787 C119.173028,22.3943787 117.654501,22.4564934 117.157525,22.4564934 L117.157525,21.8628918 C119.083298,21.7731869 119.269663,21.7110426 119.297274,21.2140656 C119.421518,19.1019279 119.704515,6.49123115 119.704515,4.06849016 C119.704515,2.7915377 119.704515,2.3912 119.54576,2.26695574 C119.387004,2.14272623 118.786496,2.04608689 117.157525,1.98395738 L117.157525,1.39726066 L119.676904,1.39726066 C120.671198,1.38918351 121.664315,1.3269668 122.651842,1.21088689 L135.352271,18.0113492 C135.504124,18.232218 135.538637,18.2598377 135.66288,18.2598377 C135.787124,18.2598377 135.787124,18.1631984 135.787124,17.9768393 C135.787124,14.6843885 135.628369,7.10554754 135.628369,4.09609508 C135.628369,2.91578197 135.628369,2.41880492 135.476515,2.26005082 C135.32466,2.10129672 134.786275,2.04608689 132.832893,1.9149377 L132.832893,1.3558459 C133.267744,1.3558459 134.758665,1.41796066 135.75261,1.41796066 C136.74656,1.41796066 138.182257,1.3558459 138.55499,1.3558459 L138.55499,1.92184262 C137.250431,1.98395738 136.877703,2.10820164 136.787973,2.20484098 C136.698238,2.30148033 136.663729,2.48093443 136.629219,4.103 L136.284097,22.4564934 C136.284097,22.704982 136.221967,22.8568311 136.008,22.8568311 C135.748432,22.8045755 135.528556,22.6332797 135.414394,22.3943787 L120.857216,3.16427049 C120.792454,2.96780523 120.64299,2.81074366 120.449975,2.73632787 C120.32573,2.73632787 120.291219,2.82603279 120.291219,2.98480164 L120.380954,19.6679246 C120.380954,21.0967262 120.380954,21.3797246 120.539709,21.5039689 C120.698465,21.6281984 121.28517,21.7800623 123.176429,21.842177 L123.176429,22.4357934 L123.183329,22.4564934 Z M156.666903,16.4583033 C156.666903,15.623118 156.666903,15.3125 156.418414,15.1537459 C156.169926,14.9949918 155.728173,14.9673869 153.312337,14.8086328 L153.312337,14.2219213 C154.58237,14.2219213 155.175986,14.2840361 157.005126,14.2840361 C159.241508,14.2840361 160.076693,14.2840361 160.856668,14.2219213 L160.856668,14.8155377 C159.73847,14.8155377 159.476186,14.8776525 159.303622,15.0640262 C159.131059,15.2503852 159.144868,15.3470246 159.144868,16.0579656 L159.144868,20.6825787 C156.806919,22.0855602 154.140427,22.8474129 151.414178,22.891341 C145.892246,22.891341 140.266784,20.0337525 140.266784,12.206423 C140.266784,5.9942541 144.518666,0.86577377 151.635047,0.86577377 C153.111115,0.886966638 154.57173,1.16973934 155.949057,1.70095902 C156.604174,2.00588543 157.279986,2.26421681 157.97146,2.47402951 C158.185439,2.47402951 158.157819,2.32218033 158.282063,1.26611148 L158.937795,1.26611148 L158.813565,8.16852131 L158.123324,8.16852131 C158.047081,6.86701972 157.890328,5.57148721 157.653967,4.28935902 C156.26026,2.50395193 154.113889,1.47032581 151.84904,1.49388525 C147.017354,1.49388525 143.089883,5.59391639 143.089883,11.8060852 C143.089883,19.6955295 148.335712,22.1597 152.125134,22.1597 C153.513349,22.2025582 154.887253,21.868619 156.100921,21.1933508 C156.570278,20.8827475 156.660013,20.6066541 156.660013,19.6127 L156.660013,16.4583033 L156.666903,16.4583033 Z M165.267303,20.6825787 C166.666228,21.6287766 168.301083,22.1665604 169.98854,22.2356246 C172.873749,22.2356246 174.647678,20.1649016 174.647678,17.9492197 C174.647678,15.1882557 172.438901,14.2219213 170.264649,13.2900967 C166.164618,11.5506918 163.714257,10.5291328 163.714257,6.95369836 C163.714257,3.75787213 166.261242,0.900283607 170.326763,0.900283607 C171.527008,0.901982292 172.70975,1.18820388 173.777968,1.73546885 C174.896152,2.29456066 174.985886,2.51544426 175.15845,2.51544426 C175.331014,2.51544426 175.379334,2.20484098 175.441449,1.30062131 L176.06267,1.30062131 L175.862501,7.01581311 L175.20677,7.01581311 C175.20677,4.5585623 175.08254,4.22033934 174.834037,3.81309672 C173.77875,2.33477921 172.052208,1.48447214 170.237029,1.54910984 C167.193067,1.54910984 165.888524,3.68885246 165.888524,5.69055574 C165.888524,8.2651459 167.441555,9.19697049 171.044609,10.6947918 C173.998852,11.9027098 176.980685,13.1451525 176.980685,16.7827164 C176.980685,20.2891459 173.784873,22.870641 170.147309,22.870641 C168.076071,22.7784604 166.036839,22.3252983 164.1215,21.5315738 L163.900631,16.5411328 L164.494232,16.5411328 L165.267303,20.6825787 Z" id="path2"></path>
    </g>
</svg>
