<svg xmlns="http://www.w3.org/2000/svg" xmlns:xlink="http://www.w3.org/1999/xlink" width="298" height="340" viewBox="0 0 298 340">
  <defs>
    <path id="b" d="M0 0h292v332H0z"/>
    <filter id="a" width="104.8%" height="104.5%" x="-2.4%" y="-1.8%" filterUnits="objectBoundingBox">
      <feOffset dy="1" in="SourceAlpha" result="shadowOffsetOuter1"/>
      <feGaussianBlur in="shadowOffsetOuter1" result="shadowBlurOuter1" stdDeviation="1.5"/>
      <feComposite in="shadowBlurOuter1" in2="SourceAlpha" operator="out" result="shadowBlurOuter1"/>
      <feColorMatrix in="shadowBlurOuter1" result="shadowMatrixOuter1" values="0 0 0 0 0.258823529 0 0 0 0 0.258823529 0 0 0 0 0.258823529 0 0 0 0.2 0"/>
      <feMorphology in="SourceAlpha" operator="dilate" radius=".5" result="shadowSpreadOuter2"/>
      <feOffset dy="3" in="shadowSpreadOuter2" result="shadowOffsetOuter2"/>
      <feGaussianBlur in="shadowOffsetOuter2" result="shadowBlurOuter2" stdDeviation="1"/>
      <feComposite in="shadowBlurOuter2" in2="SourceAlpha" operator="out" result="shadowBlurOuter2"/>
      <feColorMatrix in="shadowBlurOuter2" result="shadowMatrixOuter2" values="0 0 0 0 0.980392157 0 0 0 0 0.980392157 0 0 0 0 0.980392157 0 0 0 0.3 0"/>
      <feMerge>
        <feMergeNode in="shadowMatrixOuter1"/>
        <feMergeNode in="shadowMatrixOuter2"/>
      </feMerge>
    </filter>
    <path id="d" d="M3 0h140a3 3 0 0 1 3 3v26a3 3 0 0 1-3 3H3a3 3 0 0 1-3-3V3a3 3 0 0 1 3-3z"/>
    <filter id="c" width="109.6%" height="146.9%" x="-4.8%" y="-18.8%" filterUnits="objectBoundingBox">
      <feOffset dy="1" in="SourceAlpha" result="shadowOffsetOuter1"/>
      <feGaussianBlur in="shadowOffsetOuter1" result="shadowBlurOuter1" stdDeviation="1.5"/>
      <feComposite in="shadowBlurOuter1" in2="SourceAlpha" operator="out" result="shadowBlurOuter1"/>
      <feColorMatrix in="shadowBlurOuter1" result="shadowMatrixOuter1" values="0 0 0 0 0.258823529 0 0 0 0 0.258823529 0 0 0 0 0.258823529 0 0 0 0.2 0"/>
      <feMorphology in="SourceAlpha" operator="dilate" radius=".5" result="shadowSpreadOuter2"/>
      <feOffset dy="3" in="shadowSpreadOuter2" result="shadowOffsetOuter2"/>
      <feGaussianBlur in="shadowOffsetOuter2" result="shadowBlurOuter2" stdDeviation="1"/>
      <feComposite in="shadowBlurOuter2" in2="SourceAlpha" operator="out" result="shadowBlurOuter2"/>
      <feColorMatrix in="shadowBlurOuter2" result="shadowMatrixOuter2" values="0 0 0 0 0.980392157 0 0 0 0 0.980392157 0 0 0 0 0.980392157 0 0 0 0.3 0"/>
      <feMerge>
        <feMergeNode in="shadowMatrixOuter1"/>
        <feMergeNode in="shadowMatrixOuter2"/>
      </feMerge>
    </filter>
  </defs>
  <g fill="none" fill-rule="evenodd">
    <g transform="translate(3 2)">
      <use fill="#000" filter="url(#a)" xlink:href="#b"/>
      <path fill="#FFF" stroke="#E0E0E0" stroke-linejoin="square" d="M.5.5v331h291V.5H.5z"/>
    </g>
    <g transform="translate(76 286)">
      <use fill="#000" filter="url(#c)" xlink:href="#d"/>
      <path fill="#FAFAFA" stroke="#FAFAFA" stroke-linejoin="square" d="M3 .5A2.5 2.5 0 0 0 .5 3v26A2.5 2.5 0 0 0 3 31.5h140a2.5 2.5 0 0 0 2.5-2.5V3A2.5 2.5 0 0 0 143 .5H3z"/>
    </g>
    <text fill="#9E9E9E" font-family="HelveticaNeue-Bold, Helvetica Neue" font-size="11" font-weight="bold" letter-spacing="1.833" transform="translate(76 286)">
      <tspan x="12" y="20">VIEW ALL TOPICS</tspan>
    </text>
    <g>
      <text fill="#BDBDBD" font-family="HelveticaNeue-Medium, Helvetica Neue" font-size="13" font-weight="400" transform="translate(19 236)">
        <tspan x="233" y="22">96</tspan>
      </text>
      <path fill="#E0E0E0" d="M240 258h-2v-11h-2v11h-2v-9h-2v9h-2v-4h-2v4h-2v-6h-2v6h-2v-7h-2v7h-2v-9h-2v9h-2v-6h-2v6h-2v1h34v-1h-2v-7h-2v7z"/>
      <text fill="#757575" font-family="HelveticaNeue, Helvetica Neue" font-size="14" transform="translate(19 236)">
        <tspan x="0" y="22">Trending Card Topic Name</tspan>
      </text>
      <path fill="#EEE" d="M19 236h260v1H19z"/>
      <text fill="#BDBDBD" font-family="HelveticaNeue-Medium, Helvetica Neue" font-size="13" font-weight="400" transform="translate(19 199)">
        <tspan x="233" y="22">116</tspan>
      </text>
      <path fill="#E0E0E0" d="M214 221h2v-11h2v11h2v-9h2v9h2v-4h2v4h2v-6h2v6h2v-7h2v7h2v-9h2v9h2v-6h2v6h2v1h-34v-1h2v-7h2v7z"/>
      <text fill="#757575" font-family="HelveticaNeue, Helvetica Neue" font-size="14" transform="translate(19 199)">
        <tspan x="0" y="22">Trending Card Topic Name</tspan>
      </text>
      <path fill="#EEE" d="M19 199h260v1H19z"/>
      <g>
        <text fill="#BDBDBD" font-family="HelveticaNeue-Medium, Helvetica Neue" font-size="13" font-weight="400" transform="translate(19 162)">
          <tspan x="233" y="22">188</tspan>
        </text>
        <path fill="#E0E0E0" d="M240 184h-2v-11h-2v11h-2v-9h-2v9h-2v-4h-2v4h-2v-6h-2v6h-2v-7h-2v7h-2v-9h-2v9h-2v-6h-2v6h-2v1h34v-1h-2v-7h-2v7z"/>
        <text fill="#757575" font-family="HelveticaNeue, Helvetica Neue" font-size="14" transform="translate(19 162)">
          <tspan x="0" y="22">Trending Card Topic Name</tspan>
        </text>
        <path fill="#EEE" d="M19 162h260v1H19z"/>
      </g>
      <g>
        <text fill="#BDBDBD" font-family="HelveticaNeue-Medium, Helvetica Neue" font-size="13" font-weight="400" transform="translate(19 125)">
          <tspan x="233" y="22">216</tspan>
        </text>
        <path fill="#E0E0E0" d="M214 147h2v-11h2v11h2v-9h2v9h2v-4h2v4h2v-6h2v6h2v-7h2v7h2v-9h2v9h2v-6h2v6h2v1h-34v-1h2v-7h2v7z"/>
        <text fill="#757575" font-family="HelveticaNeue, Helvetica Neue" font-size="14" transform="translate(19 125)">
          <tspan x="0" y="22">Trending Card Topic Name</tspan>
        </text>
        <path fill="#EEE" d="M19 125h260v1H19z"/>
      </g>
      <g>
        <text fill="#BDBDBD" font-family="HelveticaNeue-Medium, Helvetica Neue" font-size="13" font-weight="400" transform="translate(19 88)">
          <tspan x="233" y="22">248</tspan>
        </text>
        <path fill="#E0E0E0" d="M240 110h-2V99h-2v11h-2v-9h-2v9h-2v-4h-2v4h-2v-6h-2v6h-2v-7h-2v7h-2v-9h-2v9h-2v-6h-2v6h-2v1h34v-1h-2v-7h-2v7z"/>
        <text fill="#757575" font-family="HelveticaNeue, Helvetica Neue" font-size="14" transform="translate(19 88)">
          <tspan x="0" y="22">Trending Card Topic Name</tspan>
        </text>
        <path fill="#EEE" d="M19 88h260v1H19z"/>
      </g>
      <g>
        <text fill="#BDBDBD" font-family="HelveticaNeue-Medium, Helvetica Neue" font-size="13" font-weight="400" transform="translate(19 51)">
          <tspan x="233" y="22">332</tspan>
        </text>
        <path fill="#E0E0E0" d="M214 73h2V62h2v11h2v-9h2v9h2v-4h2v4h2v-6h2v6h2v-7h2v7h2v-9h2v9h2v-6h2v6h2v1h-34v-1h2v-7h2v7z"/>
        <text fill="#757575" font-family="HelveticaNeue, Helvetica Neue" font-size="14" transform="translate(19 51)">
          <tspan x="0" y="22">Trending Card Topic Name</tspan>
        </text>
        <path fill="#EEE" d="M19 51h260v1H19z"/>
      </g>
      <text fill="#424242" font-family="HelveticaNeue-Bold, Helvetica Neue" font-size="21" font-weight="bold" transform="translate(19 18)">
        <tspan x="0" y="20">Trending Topics</tspan>
      </text>
    </g>
  </g>
</svg>
