<svg xmlns="http://www.w3.org/2000/svg" xmlns:xlink="http://www.w3.org/1999/xlink" width="298" height="340" viewBox="0 0 298 340">
  <defs>
    <path id="b" d="M0 0h292v332H0z"/>
    <filter id="a" width="104.8%" height="104.5%" x="-2.4%" y="-1.8%" filterUnits="objectBoundingBox">
      <feOffset dy="1" in="SourceAlpha" result="shadowOffsetOuter1"/>
      <feGaussianBlur in="shadowOffsetOuter1" result="shadowBlurOuter1" stdDeviation="1.5"/>
      <feComposite in="shadowBlurOuter1" in2="SourceAlpha" operator="out" result="shadowBlurOuter1"/>
      <feColorMatrix in="shadowBlurOuter1" result="shadowMatrixOuter1" values="0 0 0 0 0.258823529 0 0 0 0 0.258823529 0 0 0 0 0.258823529 0 0 0 0.2 0"/>
      <feMorphology in="SourceAlpha" operator="dilate" radius=".5" result="shadowSpreadOuter2"/>
      <feOffset dy="3" in="shadowSpreadOuter2" result="shadowOffsetOuter2"/>
      <feGaussianBlur in="shadowOffsetOuter2" result="shadowBlurOuter2" stdDeviation="1"/>
      <feComposite in="shadowBlurOuter2" in2="SourceAlpha" operator="out" result="shadowBlurOuter2"/>
      <feColorMatrix in="shadowBlurOuter2" result="shadowMatrixOuter2" values="0 0 0 0 0.980392157 0 0 0 0 0.980392157 0 0 0 0 0.980392157 0 0 0 0.3 0"/>
      <feMerge>
        <feMergeNode in="shadowMatrixOuter1"/>
        <feMergeNode in="shadowMatrixOuter2"/>
      </feMerge>
    </filter>
    <path id="c" d="M8.484 12.516l-3.468 4.5h13.968l-4.5-6-3.468 4.5-2.532-3zM23.016 18c0 1.078-.938 2.016-2.016 2.016H3C1.922 20.016.984 19.078.984 18V6c0-1.078.938-2.016 2.016-2.016h18c1.078 0 2.016.938 2.016 2.016v12z"/>
    <path id="f" d="M3 0h161a3 3 0 0 1 3 3v26a3 3 0 0 1-3 3H3a3 3 0 0 1-3-3V3a3 3 0 0 1 3-3z"/>
    <filter id="e" width="108.4%" height="146.9%" x="-4.2%" y="-18.8%" filterUnits="objectBoundingBox">
      <feOffset dy="1" in="SourceAlpha" result="shadowOffsetOuter1"/>
      <feGaussianBlur in="shadowOffsetOuter1" result="shadowBlurOuter1" stdDeviation="1.5"/>
      <feComposite in="shadowBlurOuter1" in2="SourceAlpha" operator="out" result="shadowBlurOuter1"/>
      <feColorMatrix in="shadowBlurOuter1" result="shadowMatrixOuter1" values="0 0 0 0 0.258823529 0 0 0 0 0.258823529 0 0 0 0 0.258823529 0 0 0 0.2 0"/>
      <feMorphology in="SourceAlpha" operator="dilate" radius=".5" result="shadowSpreadOuter2"/>
      <feOffset dy="3" in="shadowSpreadOuter2" result="shadowOffsetOuter2"/>
      <feGaussianBlur in="shadowOffsetOuter2" result="shadowBlurOuter2" stdDeviation="1"/>
      <feComposite in="shadowBlurOuter2" in2="SourceAlpha" operator="out" result="shadowBlurOuter2"/>
      <feColorMatrix in="shadowBlurOuter2" result="shadowMatrixOuter2" values="0 0 0 0 0.980392157 0 0 0 0 0.980392157 0 0 0 0 0.980392157 0 0 0 0.3 0"/>
      <feMerge>
        <feMergeNode in="shadowMatrixOuter1"/>
        <feMergeNode in="shadowMatrixOuter2"/>
      </feMerge>
    </filter>
  </defs>
  <g fill="none" fill-rule="evenodd">
    <g transform="translate(3 2)">
      <use fill="#000" filter="url(#a)" xlink:href="#b"/>
      <path fill="#FAFAFA" stroke="#E0E0E0" stroke-linejoin="square" d="M.5.5v331h291V.5H.5z"/>
    </g>
    <text fill="#9E9E9E" font-family="HelveticaNeue, Helvetica Neue" font-size="15" transform="translate(3 204)">
      <tspan x="37" y="62">Author Name</tspan>
    </text>
    <text fill="#9E9E9E" font-family="HelveticaNeue, Helvetica Neue" font-size="15" transform="translate(3 204)">
      <tspan x="16.302" y="62">by</tspan>
    </text>
    <text fill="#424242" font-family="HelveticaNeue-Bold, Helvetica Neue" font-size="18" font-weight="bold" transform="translate(3 204)">
      <tspan x="16" y="18">Featured Card w/ title below </tspan> <tspan x="16" y="40">thumbnail image.</tspan>
    </text>
    <g>
      <path fill="#FFF" stroke="#E0E0E0" d="M3.5 2.5h291v163H3.5z"/>
      <g transform="translate(137 72.355)">
        <mask id="d" fill="#fff">
          <use xlink:href="#c"/>
        </mask>
        <use fill="#9E9E9E" fill-rule="nonzero" xlink:href="#c"/>
        <g fill="#9E9E9E" mask="url(#d)">
          <path d="M0 0h32v32H0z"/>
        </g>
      </g>
    </g>
    <g>
      <g transform="translate(65 148)">
        <use fill="#000" filter="url(#e)" xlink:href="#f"/>
        <path fill="#BDBDBD" stroke="#BDBDBD" stroke-linejoin="square" d="M3 .5A2.5 2.5 0 0 0 .5 3v26A2.5 2.5 0 0 0 3 31.5h161a2.5 2.5 0 0 0 2.5-2.5V3A2.5 2.5 0 0 0 164 .5H3z"/>
      </g>
      <text fill="#FFF" font-family="HelveticaNeue-Bold, Helvetica Neue" font-size="11" font-weight="bold" letter-spacing="1.833" transform="translate(65 148)">
        <tspan x="12" y="19">FEATURED CONTENT</tspan>
      </text>
    </g>
  </g>
</svg>
